<svg xmlns="http://www.w3.org/2000/svg" width="156.292" height="58" viewBox="0 0 156.292 58"><defs><style>.a,.b{fill:#0d0e0c;}.a{font-size:34px;font-family:Givani;}</style></defs><g transform="translate(-750 -179.895)"><text class="a" transform="translate(750 217.895)"><tspan x="0" y="0">gradesy</tspan></text><path class="b" d="M16.578,4.824V16.4a4.824,4.824,0,1,1-9.648,0V4.824a2.895,2.895,0,1,1,5.789,0v8.684a.965.965,0,1,1-1.93,0V5.789H8.859v7.719a2.895,2.895,0,1,0,5.789,0V4.824A4.824,4.824,0,0,0,5,4.824V16.4a6.754,6.754,0,0,0,13.508,0V4.824Z" transform="translate(889.657 191.28) rotate(26)"/></g></svg>