<svg xmlns="http://www.w3.org/2000/svg" width="148.401" height="26.867" viewBox="0 0 148.401 26.867"><defs><style>.a{fill:#0d0e0c;}</style></defs><g transform="translate(-746.745 -188)"><path class="a" d="M16.578,4.824V16.4a4.824,4.824,0,1,1-9.648,0V4.824a2.895,2.895,0,1,1,5.789,0v8.684a.965.965,0,1,1-1.93,0V5.789H8.859v7.719a2.895,2.895,0,1,0,5.789,0V4.824A4.824,4.824,0,0,0,5,4.824V16.4a6.754,6.754,0,0,0,13.508,0V4.824Z" transform="translate(878.511 185.808) rotate(26)"/><path class="a" d="M-51.351,0c-6.634,0-11.9-3.131-11.9-10.912,0-5.3,4.557-9.734,11.129-9.734,2.79,0,5.456.372,7.75,2.852.372.372.9.5,1.147.961.155.31.062.651-.434.806L-48.5-14.136c-.4.155-.527.062-.62-.155-.155-.4.155-.713.062-1.3A3.353,3.353,0,0,0-52.126-18.6c-2.2,0-4,1.147-4.123,6.975-.093,5.022,2.48,9.517,4.588,9.517,1.116,0,1.457-.62,1.457-1.829V-6.665c0-1.984-1.364-2.542-1.364-3.41,0-.465.341-.527.651-.527h8.029c.31,0,.651.062.651.527,0,.9-1.364,1.488-1.364,3.6v1.55C-43.57-1.488-47.91,0-51.351,0Zm26.443-12.741c.806-.806,2.728-1.488,5.239-1.488s8.432.093,8.432,5.084v5.208C-11.237-1.922-9.9-1.4-9.9-.527c0,.465-.341.527-.651.527h-4.03a3.645,3.645,0,0,1-2.48-.713,5.137,5.137,0,0,1-2.852.744c-5.89,0-7.967-2.015-7.967-4.836,0-3.844,4.805-6.231,10.013-5.022-.031-1.767-.837-3.007-2.294-3.007a3.573,3.573,0,0,0-3.658,1.922c-1.147,2.294-5.859,2.79-5.58.124.155-1.643-.744-1.829-1.209-1.829-1.116,0-1.86,1.426-1.86,3.1v5.394c0,2.17,1.364,2.728,1.364,3.6,0,.5-.341.558-.651.558h-8.029c-.31,0-.651-.062-.651-.558,0-.837,1.364-1.364,1.364-3.379l-.031-4.557c0-1.984-1.333-2.325-1.333-3.193,0-.465-.031-.527.651-.713,5.735-1.612,5.859-1.643,5.859-1.643,1.147-.31,1.4-.279,1.457.5A4.893,4.893,0,0,1-29.9-14.2,8.545,8.545,0,0,1-24.908-12.741Zm7.037,7.285c0-2.2-.4-2.976-1.4-3.1-1.612-.186-2.263,1.705-2.263,3.131,0,2.263.744,2.79,1.953,2.79C-18.15-2.635-17.9-3.72-17.871-5.456ZM1.5-13.981v-5.208c0-1.3.093-1.364,1.426-1.023,0,0,.155.031,5.89,1.643.651.186.62.248.62.713,0,.868-1.333,1.209-1.333,3.193V-3.906C8.107-1.922,9.44-1.4,9.44-.527,9.44-.062,9.1,0,8.82,0H4.883A3.85,3.85,0,0,1,2.527-.589a7.579,7.579,0,0,1-3.1.62C-6.432.031-8.54-4.092-8.54-6.913-8.54-12.369-3.735-15.159,1.5-13.981Zm0,5.8C1.411-9.92,1.07-11.625.078-11.9-1.6-12.338-2.185-8.959-2.185-7.533-2.185-4.34-.852-2.6.14-2.6,1.163-2.6,1.5-4.774,1.5-6.665ZM17.437-5.8c.651,4.96,7.037,3.162,8.308,1.8.9-.961.868.31.589.9C25.528-1.519,24.1.434,20.258.434c-6.169,0-9.641-3.379-9.641-7.5,0-4.154,2.7-7.471,8.773-7.471,4.929,0,7.44,3.317,7.6,5.208C27.171-6.789,22.893-5.332,17.437-5.8Zm3.937-3.534c-.155-1.457-.744-3.751-1.984-3.751-1.457,0-2.511,1.333-2.108,5.921C19.762-7.75,21.467-8.587,21.374-9.331Zm14.074-1.488c0,3.348,12.648,1.085,12.152,6.634C47.321-1.054,44.563,0,38.021,0c-2.449,0-6.262-.124-8.246-1.86C26.3-4.929,33.5-7.936,35.138-3.379a2.972,2.972,0,0,0,3.1,1.984,2.133,2.133,0,0,0,2.356-1.953c.5-3.038-11.16-1.085-11.253-6.6,0-3.348,4.9-4.247,9.114-4.247,2.79,0,6.107,1.054,7.192,2.139,2.7,2.7-3.255,4.464-4.712,1.519-.651-1.333-1.519-2.17-2.6-2.17C36.13-12.71,35.448-11.594,35.448-10.819ZM55.071.124,49.429-10.292c-1.085-1.984-2.108-1.984-1.984-2.914.093-.589.4-1.023,1.3-1.023h5.89a.953.953,0,0,1,.93.558c.465.868-.558,1.488.589,3.565l1.922,3.534,1.581-3.534c.961-2.077-.124-2.7.31-3.565a.856.856,0,0,1,.868-.558h1.488a1.045,1.045,0,0,1,.93.651c.279.806-.868.465-2.077,3.286L55.629,2.852c-.744,1.736-1.612,2.015-2.7,2.015a2.267,2.267,0,0,1-1.984-3.379c1.24-2.2,2.573,1.922,3.689-.4Z" transform="translate(810 210)"/></g></svg>