<svg xmlns="http://www.w3.org/2000/svg" viewBox="0 0 288.55 61.73"><defs><style>.cls-1{fill:#4d4c4d;}.cls-2{fill:#eb544a;}</style></defs><g id="Layer_2" data-name="Layer 2"><g id="Layer_1-2" data-name="Layer 1"><path class="cls-1" d="M105.67,43.27q0,7.38-4.41,11.09a16.59,16.59,0,0,1-11.05,3.71,26.11,26.11,0,0,1-11.3-2.29v-9A16.15,16.15,0,0,0,89.3,50.16c2.66,0,4.59-.57,5.8-1.69s1.81-2.9,1.81-5.32v-2q-2.66,4.11-8.45,4.11a11.78,11.78,0,0,1-8.73-3.75q-3.66-3.74-3.65-11.11a16.29,16.29,0,0,1,3.53-10.78,11.45,11.45,0,0,1,9.27-4.26,8.7,8.7,0,0,1,8,4.35V15.61h8.76ZM85.26,30.41a9.75,9.75,0,0,0,1.45,5.8,4.81,4.81,0,0,0,4.16,2,5.21,5.21,0,0,0,4.44-2.14,8.37,8.37,0,0,0,1.6-5.17q0-8.2-6-8.21a4.86,4.86,0,0,0-4.16,2.05A9.39,9.39,0,0,0,85.26,30.41Z"/><path class="cls-1" d="M121.37,46.23h-8.81l.06-30.62h8.75v5.68A8.84,8.84,0,0,1,124.18,17a7,7,0,0,1,4.56-1.6,8.79,8.79,0,0,1,2.3.24V24a7.81,7.81,0,0,0-3.32-.67,5.69,5.69,0,0,0-4.59,2.09A8.27,8.27,0,0,0,121.37,31Z"/><path class="cls-1" d="M150.55,42.49c-1.29,2.62-3.83,3.92-7.61,3.92a9.37,9.37,0,0,1-7-2.53,8.67,8.67,0,0,1-2.51-6.34,8.12,8.12,0,0,1,3.23-6.86q3.24-2.45,9.58-2.45h3.86V26.12c0-2.58-1.71-3.86-5.13-3.86A16.41,16.41,0,0,0,135.81,25V17.12q3.62-2.06,10.45-2.05,6.53,0,9.72,2.81c2.14,1.87,3.2,4.78,3.2,8.72V46.23h-8.63Zm-4.35-2.3a3.72,3.72,0,0,0,2.9-1.14,4.59,4.59,0,0,0,1-3.15V33.67h-2.84a5.36,5.36,0,0,0-3.44,1,3,3,0,0,0-1.21,2.47C142.63,39.17,143.82,40.19,146.2,40.19Z"/><path class="cls-1" d="M195.78,46.23H187V41.46a10,10,0,0,1-9.18,5.14,11.48,11.48,0,0,1-9.57-4.66,17.64,17.64,0,0,1-3.59-11.11q0-7.24,3.74-11.41a12.2,12.2,0,0,1,9.48-4.17A10.09,10.09,0,0,1,187,20.32V3.53h8.82ZM173.56,31A8.84,8.84,0,0,0,175.49,37a6.13,6.13,0,0,0,9.6-.09A9.79,9.79,0,0,0,187,30.59a8.21,8.21,0,0,0-2-5.92,6.42,6.42,0,0,0-4.8-2.11,5.92,5.92,0,0,0-4.68,2.23A9.29,9.29,0,0,0,173.56,31Z"/><path class="cls-1" d="M227.07,44.48c-2.09,1.37-5.3,2.05-9.6,2.05q-7.56,0-11.75-4.37a15.62,15.62,0,0,1-4.2-11.27q0-7.3,4.08-11.44a13.56,13.56,0,0,1,10.05-4.14q6.16,0,9.73,3.59t3.56,10.72a39.35,39.35,0,0,1-.48,4.77h-18a7.39,7.39,0,0,0,3.14,3.93A10,10,0,0,0,219,39.71a13,13,0,0,0,8.09-2.6ZM216,22a5.34,5.34,0,0,0-3.75,1.54,8,8,0,0,0-2.17,4.56h10.63v-.72C220.45,23.81,218.87,22,216,22Z"/><path class="cls-1" d="M254.91,37a8.27,8.27,0,0,1-3.26,7A13.91,13.91,0,0,1,243,46.47a20.68,20.68,0,0,1-9.3-1.87V36.75a15.22,15.22,0,0,0,8.82,2.9c2.21,0,3.32-.7,3.32-2.11a1.9,1.9,0,0,0-.3-1,2.94,2.94,0,0,0-1-.91,14.3,14.3,0,0,0-1.32-.69l-1.76-.76c-.76-.32-1.35-.58-1.75-.78q-6.1-2.89-6.1-8.7a8.12,8.12,0,0,1,3.41-7,14.1,14.1,0,0,1,8.49-2.47,21,21,0,0,1,7.85,1.27v7.55a14.54,14.54,0,0,0-7.49-1.88,4,4,0,0,0-2.41.64,1.92,1.92,0,0,0-.85,1.6,2,2,0,0,0,.3,1,3,3,0,0,0,1,.9c.46.28.91.54,1.33.76s1,.49,1.75.81,1.34.61,1.78.85a15.39,15.39,0,0,1,4.47,3.35A7,7,0,0,1,254.91,37Z"/><path class="cls-1" d="M277.5,45.33q-4.77,12.86-14.56,12.86a17.48,17.48,0,0,1-3.38-.3v-7a8.49,8.49,0,0,0,2.06.25q5,0,7.24-5.38L257,15.61h9.61L270,25.15c.84,2.46,1.54,4.57,2.08,6.35s.88,2.94,1,3.5l.18.84q.66-2.42,3.26-10.69l3-9.54h9.06Z"/><circle class="cls-2" cx="30.87" cy="30.86" r="13.5"/><path class="cls-2" d="M30.87,0A30.87,30.87,0,1,0,61.73,30.86,30.87,30.87,0,0,0,30.87,0Zm0,49.36a18.5,18.5,0,1,1,18.5-18.5A18.52,18.52,0,0,1,30.87,49.36Z"/></g></g></svg>