<svg xmlns="http://www.w3.org/2000/svg" width="10.71" height="10.71" viewBox="0 0 10.71 10.71"><defs><style>.a{fill:#4d4c4d;opacity:0.68;}</style></defs><path class="a" d="M5.355,0A5.355,5.355,0,1,0,10.71,5.355,5.355,5.355,0,0,0,5.355,0Zm0,8.144a.558.558,0,1,1,.558-.558A.558.558,0,0,1,5.355,8.144ZM6.23,5.5a1.179,1.179,0,0,0-.417.972H4.918a1.643,1.643,0,0,1,.639-1.548c.256-.243.457-.435.429-.813a.59.59,0,0,0-.609-.547c-.316,0-.686.235-.686.9h-.9A1.581,1.581,0,0,1,5.4,2.7a1.574,1.574,0,0,1,1.138.426,1.4,1.4,0,0,1,.381,1.025A2,2,0,0,1,6.23,5.5Z"/></svg>