<svg xmlns="http://www.w3.org/2000/svg" width="350" height="285" viewBox="0 0 350 285"><defs><style>.a{fill:#0d0e0c;}.b,.d{fill:#fff;}.b,.c{fill-rule:evenodd;}.d{stroke:#fff;font-size:27px;font-family:Alexross-Regular, Alexross;}</style></defs><g transform="translate(-340 -563.794)"><g transform="translate(632 762)"><circle class="a" cx="1.5" cy="1.5" r="1.5" transform="translate(33)"/><circle class="a" cx="1.5" cy="1.5" r="1.5"/><circle class="a" cx="1.5" cy="1.5" r="1.5" transform="translate(33 13)"/><circle class="a" cx="1.5" cy="1.5" r="1.5" transform="translate(0 13)"/><circle class="a" cx="1.5" cy="1.5" r="1.5" transform="translate(33 26)"/><circle class="a" cx="1.5" cy="1.5" r="1.5" transform="translate(0 26)"/><circle class="a" cx="1.5" cy="1.5" r="1.5" transform="translate(44)"/><circle class="a" cx="1.5" cy="1.5" r="1.5" transform="translate(11)"/><circle class="a" cx="1.5" cy="1.5" r="1.5" transform="translate(44 13)"/><circle class="a" cx="1.5" cy="1.5" r="1.5" transform="translate(11 13)"/><circle class="a" cx="1.5" cy="1.5" r="1.5" transform="translate(44 26)"/><circle class="a" cx="1.5" cy="1.5" r="1.5" transform="translate(11 26)"/><circle class="a" cx="1.5" cy="1.5" r="1.5" transform="translate(55)"/><circle class="a" cx="1.5" cy="1.5" r="1.5" transform="translate(22)"/><circle class="a" cx="1.5" cy="1.5" r="1.5" transform="translate(55 13)"/><circle class="a" cx="1.5" cy="1.5" r="1.5" transform="translate(22 13)"/><circle class="a" cx="1.5" cy="1.5" r="1.5" transform="translate(55 26)"/><circle class="a" cx="1.5" cy="1.5" r="1.5" transform="translate(22 26)"/></g><g transform="translate(632 723)"><circle class="a" cx="1.5" cy="1.5" r="1.5" transform="translate(33)"/><circle class="a" cx="1.5" cy="1.5" r="1.5"/><circle class="a" cx="1.5" cy="1.5" r="1.5" transform="translate(33 13)"/><circle class="a" cx="1.5" cy="1.5" r="1.5" transform="translate(0 13)"/><circle class="a" cx="1.5" cy="1.5" r="1.5" transform="translate(33 26)"/><circle class="a" cx="1.5" cy="1.5" r="1.5" transform="translate(0 26)"/><circle class="a" cx="1.5" cy="1.5" r="1.5" transform="translate(44)"/><circle class="a" cx="1.5" cy="1.5" r="1.5" transform="translate(11)"/><circle class="a" cx="1.5" cy="1.5" r="1.5" transform="translate(44 13)"/><circle class="a" cx="1.5" cy="1.5" r="1.5" transform="translate(11 13)"/><circle class="a" cx="1.5" cy="1.5" r="1.5" transform="translate(44 26)"/><circle class="a" cx="1.5" cy="1.5" r="1.5" transform="translate(11 26)"/><circle class="a" cx="1.5" cy="1.5" r="1.5" transform="translate(55)"/><circle class="a" cx="1.5" cy="1.5" r="1.5" transform="translate(22)"/><circle class="a" cx="1.5" cy="1.5" r="1.5" transform="translate(55 13)"/><circle class="a" cx="1.5" cy="1.5" r="1.5" transform="translate(22 13)"/><circle class="a" cx="1.5" cy="1.5" r="1.5" transform="translate(55 26)"/><circle class="a" cx="1.5" cy="1.5" r="1.5" transform="translate(22 26)"/></g><g transform="translate(632 684)"><circle class="a" cx="1.5" cy="1.5" r="1.5" transform="translate(33)"/><circle class="a" cx="1.5" cy="1.5" r="1.5"/><circle class="a" cx="1.5" cy="1.5" r="1.5" transform="translate(33 13)"/><circle class="a" cx="1.5" cy="1.5" r="1.5" transform="translate(0 13)"/><circle class="a" cx="1.5" cy="1.5" r="1.5" transform="translate(33 26)"/><circle class="a" cx="1.5" cy="1.5" r="1.5" transform="translate(0 26)"/><circle class="a" cx="1.5" cy="1.5" r="1.5" transform="translate(44)"/><circle class="a" cx="1.5" cy="1.5" r="1.5" transform="translate(11)"/><circle class="a" cx="1.5" cy="1.5" r="1.5" transform="translate(44 13)"/><circle class="a" cx="1.5" cy="1.5" r="1.5" transform="translate(11 13)"/><circle class="a" cx="1.5" cy="1.5" r="1.5" transform="translate(44 26)"/><circle class="a" cx="1.5" cy="1.5" r="1.5" transform="translate(11 26)"/><circle class="a" cx="1.5" cy="1.5" r="1.5" transform="translate(55)"/><circle class="a" cx="1.5" cy="1.5" r="1.5" transform="translate(22)"/><circle class="a" cx="1.5" cy="1.5" r="1.5" transform="translate(55 13)"/><circle class="a" cx="1.5" cy="1.5" r="1.5" transform="translate(22 13)"/><circle class="a" cx="1.5" cy="1.5" r="1.5" transform="translate(55 26)"/><circle class="a" cx="1.5" cy="1.5" r="1.5" transform="translate(22 26)"/></g><g transform="translate(632 645)"><circle class="a" cx="1.5" cy="1.5" r="1.5" transform="translate(33)"/><circle class="a" cx="1.5" cy="1.5" r="1.5"/><circle class="a" cx="1.5" cy="1.5" r="1.5" transform="translate(33 13)"/><circle class="a" cx="1.5" cy="1.5" r="1.5" transform="translate(0 13)"/><circle class="a" cx="1.5" cy="1.5" r="1.5" transform="translate(33 26)"/><circle class="a" cx="1.5" cy="1.5" r="1.5" transform="translate(0 26)"/><circle class="a" cx="1.5" cy="1.5" r="1.5" transform="translate(44)"/><circle class="a" cx="1.5" cy="1.5" r="1.5" transform="translate(11)"/><circle class="a" cx="1.5" cy="1.5" r="1.5" transform="translate(44 13)"/><circle class="a" cx="1.5" cy="1.5" r="1.5" transform="translate(11 13)"/><circle class="a" cx="1.5" cy="1.5" r="1.5" transform="translate(44 26)"/><circle class="a" cx="1.5" cy="1.5" r="1.5" transform="translate(11 26)"/><circle class="a" cx="1.5" cy="1.5" r="1.5" transform="translate(55)"/><circle class="a" cx="1.5" cy="1.5" r="1.5" transform="translate(22)"/><circle class="a" cx="1.5" cy="1.5" r="1.5" transform="translate(55 13)"/><circle class="a" cx="1.5" cy="1.5" r="1.5" transform="translate(22 13)"/><circle class="a" cx="1.5" cy="1.5" r="1.5" transform="translate(55 26)"/><circle class="a" cx="1.5" cy="1.5" r="1.5" transform="translate(22 26)"/></g><g transform="translate(632 801)"><circle class="a" cx="1.5" cy="1.5" r="1.5" transform="translate(33)"/><circle class="a" cx="1.5" cy="1.5" r="1.5"/><circle class="a" cx="1.5" cy="1.5" r="1.5" transform="translate(33 13)"/><circle class="a" cx="1.5" cy="1.5" r="1.5" transform="translate(0 13)"/><circle class="a" cx="1.5" cy="1.5" r="1.5" transform="translate(33 26)"/><circle class="a" cx="1.5" cy="1.5" r="1.5" transform="translate(0 26)"/><circle class="a" cx="1.5" cy="1.5" r="1.5" transform="translate(44)"/><circle class="a" cx="1.5" cy="1.5" r="1.5" transform="translate(11)"/><circle class="a" cx="1.5" cy="1.5" r="1.5" transform="translate(44 13)"/><circle class="a" cx="1.5" cy="1.5" r="1.5" transform="translate(11 13)"/><circle class="a" cx="1.5" cy="1.5" r="1.5" transform="translate(44 26)"/><circle class="a" cx="1.5" cy="1.5" r="1.5" transform="translate(11 26)"/><circle class="a" cx="1.5" cy="1.5" r="1.5" transform="translate(55)"/><circle class="a" cx="1.5" cy="1.5" r="1.5" transform="translate(22)"/><circle class="a" cx="1.5" cy="1.5" r="1.5" transform="translate(55 13)"/><circle class="a" cx="1.5" cy="1.5" r="1.5" transform="translate(22 13)"/><circle class="a" cx="1.5" cy="1.5" r="1.5" transform="translate(55 26)"/><circle class="a" cx="1.5" cy="1.5" r="1.5" transform="translate(22 26)"/></g><g transform="translate(340 585.875)"><g transform="translate(0 0)"><g transform="translate(0 0)"><g transform="translate(0)"><g transform="translate(0 94.602)"><path class="b" d="M176,126.6q-1.378-7.785-2.526-15.607c-.363-2.475-.717-4.953-1.036-7.435-.223-1.739-.563-3.727.62-5.015,1.664-1.813,3.175-3.364,3.379-5.961.192-2.443-.634-5.106-1.151-7.478-1.082-4.973-2.43-9.885-3.92-14.75-1.513-4.943-3.173-9.839-4.856-14.726a137.716,137.716,0,0,0-5.136-13.563c-3.89-8.319-10.471-14.48-18.6-18.594-2.022-1.023-6.149-4.675-8.262-5.493-1.942-.752-1.936,1.444-3.847.617a7.646,7.646,0,0,1-3.808-3.019c-.929-1.6-3.259-3.845-3.614-5.711-.752-3.955.063-7.322-2.759-10.3a20.5,20.5,0,0,0-9.357-5.427C103.46-8,93.239-6.508,88.614.617c-2.209,3.4-2.981,7.515-5.961,10.292-2.6,2.425-2.02,4.082-5.391,5.332-.191.071-5.365-1.039-5.556-.968-3.687-.789-7.212,1.42-10.594,2.7a74.159,74.159,0,0,0-14.356,7.356A90.99,90.99,0,0,0,23.446,47.8,110,110,0,0,0,8.368,76.878q-1.3,3.77-2.338,7.626A7.755,7.755,0,0,0,5.7,88.9a5.668,5.668,0,0,0,2.24,2.823c1.359.98,4.084,1.616,4.031,3.586a34.413,34.413,0,0,1-.8,4.554c-.3,1.763-.538,3.536-.78,5.306-1.1,8.058-1.961,16.162-2.341,24.288a209.835,209.835,0,0,0-.129,24.166,3.092,3.092,0,0,0,.448,1.42.323.323,0,0,0,.04.6l.619.13a2.723,2.723,0,0,0,1.579.544c.417.013.834.032,1.251.053,4.4.92,8.8,1.789,13.251,2.447q8.124,1.2,16.3,1.981c11.2,1.088,22.3.728,33.515.14q16.791-.879,33.586-.431c11.215.292,22.426.78,33.644.98,12.532.222,25.045-.12,37.542-1.116a2.576,2.576,0,0,0,2.435-3.2C180.109,146.971,177.815,136.84,176,126.6Z" transform="translate(-3.898 6.763)"/><path class="c" d="M68.326,14.573a25.021,25.021,0,0,1,3.5.251c.1.01.139.165.026.189-2.069.432-4.116,1.024-6.148,1.625l-.87.258A70.927,70.927,0,0,0,58.1,19.178,60.343,60.343,0,0,0,45.61,26.209C30.728,36.973,19.956,53.271,13.159,70.144A119.927,119.927,0,0,0,8.482,84.2q-.462,1.743-.873,3.5c-.081.343-.432,1.222-.239,1.573.17.31.833.5,1.141.663l1.039.539c2.027,1.045,5.4,2.763,5.743,2.931l.528.26c8.639,4.237,17.869,7.829,27.59,8.078l.076-.83h0a78,78,0,0,1,2.244-13.657c.067-.239.371-.158.4.054a90.167,90.167,0,0,1,.229,15.87c-.427,9.374-.995,18.743-1.5,28.113-.252,4.687-.579,9.372-.873,14.056s-.391,9.5-1.064,14.157A2.057,2.057,0,0,1,40.637,161a2.081,2.081,0,0,1-1.806-2.047c-.012-2.712.328-5.455.518-8.162q.27-3.855.571-7.709c.723-9.376,1.554-18.741,2.323-28.113q.409-4.986.87-9.966c-10.3-.332-19.919-4.148-29.1-8.606-.133,3.017-.454,6.029-.764,9.034-.867,8.386-1.632,16.767-2.2,25.179-.289,4.248-.5,8.5-.682,12.756q-.135,3.137-.22,6.274-.028,1.047-.051,2.092l-.031,1.6a3.3,3.3,0,0,1-.98,2.687,2.1,2.1,0,0,1-2.889,0c-1.146-1.055-.943-2.494-.909-3.911q.042-1.793.1-3.586.119-3.585.3-7.169C6.12,133,6.979,124.679,8.1,116.395l.438-3.2a105.85,105.85,0,0,1,3.545-17.752q-1.068-.531-2.129-1.069C8.7,93.74,7.4,93.143,6.183,92.442A3.969,3.969,0,0,1,4.112,90a8.406,8.406,0,0,1,.464-3.852l.026-.108q.449-1.849.961-3.682A121.435,121.435,0,0,1,10.642,67.8,119.274,119.274,0,0,1,26.091,41.142,80.625,80.625,0,0,1,46.306,22.159,54.444,54.444,0,0,1,58.557,16.3a32.5,32.5,0,0,1,6.337-1.475C66.036,14.7,67.179,14.623,68.326,14.573ZM88.86-.465c1.377-1.479,4.113.052,3.452,2.011a24.655,24.655,0,0,1-7.9,11.842c-3.634,2.847-7.967,4.7-12.633,4.3a.277.277,0,0,1-.095-.025l.4.546a73.2,73.2,0,0,0,10.5,11.977c8.179,7.115,19.315,10.952,30.067,8.222,8.46-2.148,15.914-8.84,18.106-17.369a1.744,1.744,0,0,1-1.1.1c-1.754-.381-3.49-2.226-4.621-3.549a16.789,16.789,0,0,1-2.88-4.724c-1.282-3.2-1.693-7.314.057-10.411a.409.409,0,0,1,.756.2l.067.582a23.548,23.548,0,0,0,2.126,8.357,17.315,17.315,0,0,0,2.449,3.643,14.223,14.223,0,0,0,1.7,1.621,18.891,18.891,0,0,1,1.852,1.361l.1.1,0-.019A1.667,1.667,0,0,1,133,16.684a6.12,6.12,0,0,1,2.006.527l.032.016a77.673,77.673,0,0,1,14.835,9.581,59.035,59.035,0,0,1,20.145,29.4,157.857,157.857,0,0,1,3.7,17.645l.634,3.628c.961,5.467,2.034,11.041,4.2,16.126a2.137,2.137,0,0,1-1.248,3.066c-1.717.646-3.442,1.272-5.169,1.889.849,3.639,1.365,7.4,2,11.061,1.35,7.772,3,15.5,4.423,23.258.726,3.97,1.38,7.952,2.1,11.921.349,1.912.713,3.82,1.068,5.732.191,1.03.363,2.064.546,3.1l.031.171a3.637,3.637,0,0,1,.085,1.652,3.708,3.708,0,0,1-1.087,1.5,1.12,1.12,0,0,1-1.307.169l-.143-.067a2.616,2.616,0,0,1-1.666-1.607,16.9,16.9,0,0,1-.353-1.758q-.33-1.65-.624-3.306-.589-3.315-1.151-6.634l-.349-2.072c-1.2-7.141-2.342-14.327-2.919-21.543q-.383-4.8-.8-9.6l-.2-2.4c-.26-3.038-.578-6.152-.622-9.231l-1.033.367h0l-5.038,1.782h0c-1.249.442-2.84,1.347-4.184,1.182a2.564,2.564,0,0,1-1.548-.665c.465,6.55,1.093,13.088,1.93,19.593.762,5.919,1.606,11.831,2.6,17.715.494,2.913,1,5.824,1.552,8.728q.414,2.178.853,4.35c.147.723.32,1.445.435,2.174a2.54,2.54,0,0,1-.566,2.034,1.318,1.318,0,0,1-1.768.464,2.847,2.847,0,0,1-1.493-1.9c-.219-.853-.353-1.744-.523-2.609q-.471-2.393-.909-4.791-.919-5.017-1.682-10.061a355.272,355.272,0,0,1-3.472-35.757c-.281-5.9-.368-11.812-.318-17.722.026-3.029.124-6.067.339-9.088.217-3.059.669-6.056,1.071-9.085a.085.085,0,0,1,.17,0c.191,3.4.491,6.788.636,10.193.14,3.249.2,6.5.313,9.753q.218,6.409.617,12.819a2.2,2.2,0,0,1,1.95-.718,30.918,30.918,0,0,0,3.214-1.118l3.813-1.274h0c2.005-.67,4.009-1.335,6.022-1.98a154.879,154.879,0,0,1-4.083-18.429l-.469-2.8A121.352,121.352,0,0,0,166,55.681a52.377,52.377,0,0,0-7.925-15.569,84.414,84.414,0,0,0-12.006-12.6c-3.711-3.286-7.682-6.253-11.467-9.449a2.187,2.187,0,0,1,.014.7,26.729,26.729,0,0,1-8.16,15.462c-8.6,8.2-21.338,9.9-32.349,6.056-10.651-3.719-20.068-12.528-23.4-23.428-.057-.186.193-.261.293-.123l.556.759a.243.243,0,0,1,.164-.258,29.394,29.394,0,0,0,10.6-6.634,22.849,22.849,0,0,0,3.633-4.92A19.712,19.712,0,0,0,87.18,3.007l.085-.238A8.728,8.728,0,0,1,88.86-.465Z" transform="translate(-4.014 7.211)"/></g><g transform="translate(45.573)"><path class="b" d="M92.588,56.2c-.846-6.752-3.5-13.921-6.3-20.216C80.008,22.672,65.623,20.839,52.728,18.1c-12.725-1.853-26.2-3.527-38.733.171C6.949,19.993,4.2,28.388,5.309,35.012c.635,4.128,2.513,8.035,4.115,11.861a66.428,66.428,0,0,1,5.207,24.774c-.219,5.559-1,11.9,5.383,14.258,6.077,3.023,6.59,11.217,14.2,15.867,3.077,6.235,11.457,6.783,17.489,8.229,3.812.73,7.668,1.267,11.534,1.615,11.194,1.435,20.149-1.81,26.009-11.786,3.921-6.071,6.841-13.081,6.12-20.439C94.646,71.643,93.449,63.936,92.588,56.2Z" transform="translate(1.766 -1.474)"/><path class="c" d="M53.322,2.983a1.512,1.512,0,0,1,2.221.1,4.436,4.436,0,0,1,1.122.511A15.067,15.067,0,0,1,59.1,3.516a4.275,4.275,0,0,1,.62-.285,4.443,4.443,0,0,1,4.173.494,2.823,2.823,0,0,1,2.174-.814,2.766,2.766,0,0,1,1.877.926,2.992,2.992,0,0,1,2.278-1.286,5.639,5.639,0,0,1,3.819,1.317,3.29,3.29,0,0,1,2.5-1.166,4.183,4.183,0,0,1,1.933.114,5.28,5.28,0,0,1,2.293,1.426A4.72,4.72,0,0,1,84.342,2.72,4.887,4.887,0,0,1,88.323,5.8,9.1,9.1,0,0,1,91.6,7.975c.05.052.1.107.148.162a4.764,4.764,0,0,1,1.4.8,3.931,3.931,0,0,1,1.185,4.274c.061.251.114.506.162.761a4.109,4.109,0,0,1,3.017,2.077,5.37,5.37,0,0,1-.246,5.252A7.08,7.08,0,0,1,95.756,23a4.293,4.293,0,0,1-.721,4.5,5.808,5.808,0,0,1-.936,1.137,3.591,3.591,0,0,1-1.712,3.979l-.12.3c-.02.05-.041.1-.062.149s-.035.126-.053.188a3.056,3.056,0,0,1-.574,1.6c-.736,1.043-1.649,1.723-2.132,2.94l-.049.128a1.255,1.255,0,0,1-1.452.8c3.178,6.529,4.844,13.794,5.988,20.913.57,3.552,1.011,7.116,1.368,10.694l.35,3.563c.308,3.167.582,6.344.584,9.522a32,32,0,0,1-6.462,19.821,29.742,29.742,0,0,1-16.746,10.868c-6.886,1.591-14.964.964-21.139-2.678-1.821-1.071-.226-3.648,1.627-2.786a30.877,30.877,0,0,0,10.958,3.117,28.173,28.173,0,0,0,11.182-1.449A27.419,27.419,0,0,0,89.909,98.6a26.736,26.736,0,0,0,3.379-8.533,42.105,42.105,0,0,0,.37-11.5l-.02-.26c-.558-7.363-1.294-14.772-2.484-22.062a117.725,117.725,0,0,0-4.767-18.938,11.312,11.312,0,0,0-2.726-1.778,195.375,195.375,0,0,0-21.624.284,179.948,179.948,0,0,0-18.309,2.2l-.649.114a18.949,18.949,0,0,0-4.1.916,3.2,3.2,0,0,0-1.8,2.457,44.058,44.058,0,0,0-.909,8.669c-.114,2.785.144,5.594-.08,8.37a9.744,9.744,0,0,1-2.5,6.381,17.677,17.677,0,0,1-3.047,2.029,1.565,1.565,0,0,0-.871,1.673c.187,1.746,1.593,3.946.014,5.441a.741.741,0,0,1-1.032,0,16.01,16.01,0,0,0-2.324-1.821.309.309,0,0,1,.312-.533c.483.217.975.472,1.479.7a9.331,9.331,0,0,0-4.01-1.632,7.238,7.238,0,0,0-2.051-.109c-.51.244-1.032.47-1.554.69-.663.278-1.333.531-2.007.771a8.625,8.625,0,0,0-2.969,8.045,6.606,6.606,0,0,0,2.5,4.475c1.725,1.158,4.036.661,5.9,1.52a7.946,7.946,0,0,1,3.6,4.112l.332.7a28.855,28.855,0,0,0,2.505,4.472,22.439,22.439,0,0,0,4.154,4.363,21.061,21.061,0,0,0,2.395,1.659l.228.135c.843.495,1.447.966,1.5,2.013a1.034,1.034,0,0,1-.508.887c-1.276.809-2.545-.2-3.607-.909a26.246,26.246,0,0,1-3.256-2.553A25.16,25.16,0,0,1,26.5,94.887c-.978-1.741-1.534-4.192-3.078-5.541-.943-.823-2.276-.83-3.455-.98a8.462,8.462,0,0,1-3.108-.909c-3.967-2.2-5.088-7.541-4.147-11.665a12.215,12.215,0,0,1,.658-2.024c-1.477.246-3.135-1.281-2.536-2.822.046-.116.1-.225.148-.337a5.078,5.078,0,0,1-2.106-2.881,4.589,4.589,0,0,1-.116-1.96,3.167,3.167,0,0,1-1.112-1.288A3.962,3.962,0,0,1,5.751,62.8a3.045,3.045,0,0,1-.064-2.941q-.092-.167-.178-.342a5.292,5.292,0,0,1-2.6-4.721,4.8,4.8,0,0,1,.447-1.75c-.021-.066-.041-.135-.059-.2A5.319,5.319,0,0,1,.444,49.536a4.718,4.718,0,0,1,1-4.172A4.009,4.009,0,0,1-.242,40.853a5.588,5.588,0,0,1,1.162-2.3.611.611,0,0,0-.011-.062l-.128-.1c-1.688-1.332-2.658-3.03-1.622-5.119a4.568,4.568,0,0,1,1.907-2.024l.039-.123h0A5.579,5.579,0,0,1,.743,27.2a4.626,4.626,0,0,1,2.012-2.676,5.627,5.627,0,0,1,.048-1.66,4.2,4.2,0,0,1,1.4-2.5c.027-.132.062-.262.1-.392a7.04,7.04,0,0,1,1.24-2.3,1.926,1.926,0,0,1,1.534-.745,5.505,5.505,0,0,1,.089-1.491,5.1,5.1,0,0,1,2.762-3.679,3.536,3.536,0,0,1,1.846-.285,3.616,3.616,0,0,1,2.78-2.058,4.7,4.7,0,0,1,1.351,0,7.819,7.819,0,0,1,.734-.3c.169-.059.34-.114.51-.168a5.334,5.334,0,0,1,2.222-1.632,4.192,4.192,0,0,1,2.987-.023l.294-.062h0a3.536,3.536,0,0,1,2.322-1.7,4.213,4.213,0,0,1,3.6.93.041.041,0,0,0,.016,0,2.92,2.92,0,0,1,2.937-1.942,3.681,3.681,0,0,1,2.447,1.17c.365-.046.729-.087,1.1-.128A9.508,9.508,0,0,1,36.365,4.3a1.536,1.536,0,0,1,2.368.305c.125.191.241.385.358.579l.526-.036h0A3.317,3.317,0,0,1,42.24,3.7a2.81,2.81,0,0,1,2.395,1.2q.7-.017,1.413-.027a8.62,8.62,0,0,1,1.935-1.662,1.554,1.554,0,0,1,1.857.24A12.1,12.1,0,0,1,50.7,4.462,4.727,4.727,0,0,1,53.322,2.983ZM19.786,75.37c1.064-.606,2.5.05,3.525.565a8.368,8.368,0,0,1,3.27,2.758c1.046,1.614-1.413,2.918-2.513,1.47a19.732,19.732,0,0,0-2.037-2.569c-.75-.716-1.837-1.195-2.267-2.138A.061.061,0,0,1,19.786,75.37ZM20.533,36.2l.02-.057c.3-.828-1.018-1.185-1.318-.364a2.445,2.445,0,0,0,1.3,3.136.707.707,0,0,0,.935-.245.688.688,0,0,0-.245-.936,1.127,1.127,0,0,1-.69-1.534ZM9.155,33.88c.661-.584-.309-1.548-.967-.967a2.428,2.428,0,0,0-.951,2.125,2.787,2.787,0,0,0,1.483,1.9.684.684,0,0,0,.69-1.181l-.085-.052c-.316-.2-.686-.466-.739-.852C8.53,34.446,8.877,34.125,9.155,33.88Zm3.752-10.3.047-.035c.71-.507.028-1.694-.69-1.181a2.6,2.6,0,0,0-1.242,1.924,2.832,2.832,0,0,0,.907,2.1c.606.641,1.572-.328.967-.967-.589-.623-.7-1.3.012-1.846Z" transform="translate(1.268 -2.536)"/></g><g transform="translate(95.248 51.518)"><path class="c" d="M32.522,54.057a9.277,9.277,0,0,1-3.9-3,1.8,1.8,0,0,1-.365-1.4,2.019,2.019,0,0,1,.785-1.265,1.879,1.879,0,0,1,1.408-.381,1.764,1.764,0,0,1,1.19.787l.07.1a6.141,6.141,0,0,0,2.25,1.889,5.07,5.07,0,0,0,2.785.49,7.475,7.475,0,0,0,4.538-2.6c.17-.174.34-.353.512-.535a.8.8,0,0,1,.425-.327.912.912,0,0,1,.585.009.93.93,0,0,1,.461.349.853.853,0,0,1,.146.565,5.855,5.855,0,0,1-1.93,3.7,8.281,8.281,0,0,1-8.961,1.623Zm5.521-22.011c1.721,1.046,4.343,3.486,2.491,6.08-2.179,2.287-5.316-.335-6.862-1.521-1.433-.919-3.044,1.445-1.714,2.518,11.171,8.274,15.7-6.8,6.955-8.307C37.95,30.65,37.592,31.722,38.043,32.046ZM18.025,22.421c.19-2.361,3.784-2.9,4.142-.561a9.566,9.566,0,0,1-1,5.9,1.757,1.757,0,0,1-3.334-.679A19.029,19.029,0,0,1,18.025,22.421Zm27.358-1.045a1.917,1.917,0,0,1,2.091-.851c2.708.792,1.91,4.638.959,6.51a1.884,1.884,0,0,1-2.942.379c-1.231-1.46-1.82-4.375-.256-5.813A1.979,1.979,0,0,1,45.383,21.376ZM21.129,12.091l.428-.075c1.323-.229,2.969-.449,3.905.615a1.546,1.546,0,0,1,0,2.154c-1.174.951-2.472.582-3.879.663a15.427,15.427,0,0,0-3.39.578,23.037,23.037,0,0,0-6.539,3.383c-.275.184-.555-.167-.424-.424a13.511,13.511,0,0,1,5.894-5.5A14.576,14.576,0,0,1,21.129,12.091Zm21.785-1.06.327.067c3.563.745,8.193,2.233,9.88,5.735.064.5,0,.6-.059.671l-.018.023a.461.461,0,0,1-.3.208l-.18-.045a10.23,10.23,0,0,1-1.978-.772l-.642-.317a17.684,17.684,0,0,0-2.294-.978,27,27,0,0,0-5.225-1.154,2.144,2.144,0,0,1-1.048-.4,1.575,1.575,0,0,1-.586-.893,1.6,1.6,0,0,1,.181-1.339,1.7,1.7,0,0,1,.827-.713A1.941,1.941,0,0,1,42.915,11.031Z" transform="translate(-11.197 -10.99)"/></g><g transform="translate(98.666 79.101)"><path class="c" d="M65.356,7.111c-.3-.908-1.867-.829-1.77.24a3.136,3.136,0,0,1-1.477,3.175,2.653,2.653,0,0,1-3.348-1,18.168,18.168,0,0,0-1.914-2.739,7.1,7.1,0,0,0-2.694-1.673,5.532,5.532,0,0,0-2.4-.251,5.834,5.834,0,0,0-5.489,2.108c-.079.1-.153.2-.224.3-.122-.166-.25-.33-.385-.492a1.077,1.077,0,0,0-1.172-.393,7.138,7.138,0,0,0-7.867-.381c-2.024,1.2-3.7,2.96-6.187,3.1-1.971.109-4.119-1.016-4.257-3.184C26.1,4.788,24.562,3.845,23.7,4.893a7.773,7.773,0,0,0-1.176,7.793,10.515,10.515,0,0,0,5.962,5.955,23.255,23.255,0,0,0,9.62,1.595,9.971,9.971,0,0,0,8.01-3.935,8.616,8.616,0,0,0,.608-.948A9.9,9.9,0,0,0,54.493,18.8c3.117.075,6.8-.473,9.006-2.894a9.035,9.035,0,0,0,1.856-8.795" transform="translate(-21.972 -4.438)"/></g></g></g></g><g transform="translate(56.224 50.693)"><path class="c" d="M99.3,28.82a10.743,10.743,0,0,1-11.561,2.242c-9.874-4.125-5.041-16.992,2.574-20.448a25.522,25.522,0,0,1,3.38-.927c.1-.051.333.1.609-.043,8.4.937,10.309,13.972,5,19.176m-31.847.764a12.194,12.194,0,0,1-14.192,3.627c-9.727-3.831-6.277-15.241.378-19.714C67.7,8.215,73.5,21.657,67.451,29.584M46.364,20.058l-.027-.011.154-.068c-.017.044-.035.087-.051.13a.57.57,0,0,0-.076-.051M105.99,15.41a4.356,4.356,0,0,0-2.6.683c-1.62-5.464-7.6-10.521-12.8-6.834a14.448,14.448,0,0,0-8.862,8.122c-3.115-1.853-8.012-1.062-10.713,1.388-1.769-5.845-6.122-7.891-11.3-8.193-5.655-.926-11.292,4.566-13.051,8.972-1.462-.166-3.648-.632-5.023.271-8.929-2.342-24.539-3.633-26.355-2.332-1.294.5-2,3.55-.2,3.714,1.575-.224-.184-2.237,1.4-2.457,8.457-.524,16.666,1.179,25.033,1.894.747,1,3.161,1.341,4.448.937-2.028,7.474,2.35,12.559,8.91,14.082,10.157,2.333,18.994-6.753,16.338-16.2a14.594,14.594,0,0,1,9.968-.659c-5.6,20.613,27.6,19.689,22.413-2,3.451,1.716,4.2-1.043,2.39-1.389" transform="translate(-14 -8)"/></g></g><path class="a" d="M43.3,71.992l.1.122L19.55,73.2,22.516,59.92C12.586,42.533.488,26.843,23,13.847c22.882-13.209,34.989-11.26,94.1-5s36.519,49.15,11.253,60.274c-10.4,4.58-28.411,6.979-46.687,6.98C68.017,76.1,54.212,74.76,43.3,71.992Z" transform="translate(488.86 559.794)"/><text class="d" transform="translate(572.459 601.068)"><tspan x="-51.57" y="0">next we need</tspan><tspan x="-43.268" y="17">your essay</tspan></text></g></svg>