<svg xmlns="http://www.w3.org/2000/svg" width="438.445" height="289.93" viewBox="0 0 438.445 289.93"><defs><style>.a{fill:none;stroke:#0d0e0c;stroke-width:2px;}.b{fill:#0d0e0c;}.c,.d{fill:#fff;}.c{stroke:#fff;font-size:27px;font-family:Alexross-Regular, Alexross;}.d,.e{fill-rule:evenodd;}</style></defs><g transform="translate(-861.555 -950.294)"><g transform="translate(97.428 942.706)"><path class="a" d="M4728.177,570.982l-7.178,7.9,7.178,9.48L4721,595.95l7.178,9.792-7.178,7.12,7.178,8.68L4721,628.683l7.178,9.712" transform="translate(1430.57 -4447.829) rotate(90)"/><path class="a" d="M4728.177,570.982l-7.178,7.9,7.178,9.48L4721,595.95l7.178,9.792-7.178,7.12,7.178,8.68L4721,628.683l7.178,9.712" transform="translate(1496.982 -4447.829) rotate(90)"/><path class="a" d="M4728.177,570.982l-7.178,7.9,7.178,9.48L4721,595.95l7.178,9.792-7.178,7.12,7.178,8.68L4721,628.683l7.178,9.712" transform="translate(1430.57 -4433.177) rotate(90)"/><path class="a" d="M4728.177,570.982l-7.178,7.9,7.178,9.48L4721,595.95l7.178,9.792-7.178,7.12,7.178,8.68L4721,628.683l7.178,9.712" transform="translate(1496.982 -4433.177) rotate(90)"/></g><g transform="translate(588 793)"><g transform="translate(-588 128)"><circle class="b" cx="1.5" cy="1.5" r="1.5" transform="translate(1275 235)"/><circle class="b" cx="1.5" cy="1.5" r="1.5" transform="translate(1242 235)"/><circle class="b" cx="1.5" cy="1.5" r="1.5" transform="translate(1275 248)"/><circle class="b" cx="1.5" cy="1.5" r="1.5" transform="translate(1242 248)"/><circle class="b" cx="1.5" cy="1.5" r="1.5" transform="translate(1275 261)"/><circle class="b" cx="1.5" cy="1.5" r="1.5" transform="translate(1242 261)"/><circle class="b" cx="1.5" cy="1.5" r="1.5" transform="translate(1286 235)"/><circle class="b" cx="1.5" cy="1.5" r="1.5" transform="translate(1253 235)"/><circle class="b" cx="1.5" cy="1.5" r="1.5" transform="translate(1286 248)"/><circle class="b" cx="1.5" cy="1.5" r="1.5" transform="translate(1253 248)"/><circle class="b" cx="1.5" cy="1.5" r="1.5" transform="translate(1286 261)"/><circle class="b" cx="1.5" cy="1.5" r="1.5" transform="translate(1253 261)"/><circle class="b" cx="1.5" cy="1.5" r="1.5" transform="translate(1297 235)"/><circle class="b" cx="1.5" cy="1.5" r="1.5" transform="translate(1264 235)"/><circle class="b" cx="1.5" cy="1.5" r="1.5" transform="translate(1297 248)"/><circle class="b" cx="1.5" cy="1.5" r="1.5" transform="translate(1264 248)"/><circle class="b" cx="1.5" cy="1.5" r="1.5" transform="translate(1297 261)"/><circle class="b" cx="1.5" cy="1.5" r="1.5" transform="translate(1264 261)"/></g><g transform="translate(-654 167)"><circle class="b" cx="1.5" cy="1.5" r="1.5" transform="translate(1275 235)"/><circle class="b" cx="1.5" cy="1.5" r="1.5" transform="translate(1242 235)"/><circle class="b" cx="1.5" cy="1.5" r="1.5" transform="translate(1275 248)"/><circle class="b" cx="1.5" cy="1.5" r="1.5" transform="translate(1242 248)"/><circle class="b" cx="1.5" cy="1.5" r="1.5" transform="translate(1275 261)"/><circle class="b" cx="1.5" cy="1.5" r="1.5" transform="translate(1242 261)"/><circle class="b" cx="1.5" cy="1.5" r="1.5" transform="translate(1286 235)"/><circle class="b" cx="1.5" cy="1.5" r="1.5" transform="translate(1253 235)"/><circle class="b" cx="1.5" cy="1.5" r="1.5" transform="translate(1286 248)"/><circle class="b" cx="1.5" cy="1.5" r="1.5" transform="translate(1253 248)"/><circle class="b" cx="1.5" cy="1.5" r="1.5" transform="translate(1286 261)"/><circle class="b" cx="1.5" cy="1.5" r="1.5" transform="translate(1253 261)"/><circle class="b" cx="1.5" cy="1.5" r="1.5" transform="translate(1297 235)"/><circle class="b" cx="1.5" cy="1.5" r="1.5" transform="translate(1264 235)"/><circle class="b" cx="1.5" cy="1.5" r="1.5" transform="translate(1297 248)"/><circle class="b" cx="1.5" cy="1.5" r="1.5" transform="translate(1264 248)"/><circle class="b" cx="1.5" cy="1.5" r="1.5" transform="translate(1297 261)"/><circle class="b" cx="1.5" cy="1.5" r="1.5" transform="translate(1264 261)"/></g><g transform="translate(-654 128)"><circle class="b" cx="1.5" cy="1.5" r="1.5" transform="translate(1275 235)"/><circle class="b" cx="1.5" cy="1.5" r="1.5" transform="translate(1242 235)"/><circle class="b" cx="1.5" cy="1.5" r="1.5" transform="translate(1275 248)"/><circle class="b" cx="1.5" cy="1.5" r="1.5" transform="translate(1242 248)"/><circle class="b" cx="1.5" cy="1.5" r="1.5" transform="translate(1275 261)"/><circle class="b" cx="1.5" cy="1.5" r="1.5" transform="translate(1242 261)"/><circle class="b" cx="1.5" cy="1.5" r="1.5" transform="translate(1286 235)"/><circle class="b" cx="1.5" cy="1.5" r="1.5" transform="translate(1253 235)"/><circle class="b" cx="1.5" cy="1.5" r="1.5" transform="translate(1286 248)"/><circle class="b" cx="1.5" cy="1.5" r="1.5" transform="translate(1253 248)"/><circle class="b" cx="1.5" cy="1.5" r="1.5" transform="translate(1286 261)"/><circle class="b" cx="1.5" cy="1.5" r="1.5" transform="translate(1253 261)"/><circle class="b" cx="1.5" cy="1.5" r="1.5" transform="translate(1297 235)"/><circle class="b" cx="1.5" cy="1.5" r="1.5" transform="translate(1264 235)"/><circle class="b" cx="1.5" cy="1.5" r="1.5" transform="translate(1297 248)"/><circle class="b" cx="1.5" cy="1.5" r="1.5" transform="translate(1264 248)"/><circle class="b" cx="1.5" cy="1.5" r="1.5" transform="translate(1297 261)"/><circle class="b" cx="1.5" cy="1.5" r="1.5" transform="translate(1264 261)"/></g><g transform="translate(-588 167)"><circle class="b" cx="1.5" cy="1.5" r="1.5" transform="translate(1275 235)"/><circle class="b" cx="1.5" cy="1.5" r="1.5" transform="translate(1242 235)"/><circle class="b" cx="1.5" cy="1.5" r="1.5" transform="translate(1275 248)"/><circle class="b" cx="1.5" cy="1.5" r="1.5" transform="translate(1242 248)"/><circle class="b" cx="1.5" cy="1.5" r="1.5" transform="translate(1275 261)"/><circle class="b" cx="1.5" cy="1.5" r="1.5" transform="translate(1242 261)"/><circle class="b" cx="1.5" cy="1.5" r="1.5" transform="translate(1286 235)"/><circle class="b" cx="1.5" cy="1.5" r="1.5" transform="translate(1253 235)"/><circle class="b" cx="1.5" cy="1.5" r="1.5" transform="translate(1286 248)"/><circle class="b" cx="1.5" cy="1.5" r="1.5" transform="translate(1253 248)"/><circle class="b" cx="1.5" cy="1.5" r="1.5" transform="translate(1286 261)"/><circle class="b" cx="1.5" cy="1.5" r="1.5" transform="translate(1253 261)"/><circle class="b" cx="1.5" cy="1.5" r="1.5" transform="translate(1297 235)"/><circle class="b" cx="1.5" cy="1.5" r="1.5" transform="translate(1264 235)"/><circle class="b" cx="1.5" cy="1.5" r="1.5" transform="translate(1297 248)"/><circle class="b" cx="1.5" cy="1.5" r="1.5" transform="translate(1264 248)"/><circle class="b" cx="1.5" cy="1.5" r="1.5" transform="translate(1297 261)"/><circle class="b" cx="1.5" cy="1.5" r="1.5" transform="translate(1264 261)"/></g></g><g transform="translate(588 637)"><g transform="translate(-588 128)"><circle class="b" cx="1.5" cy="1.5" r="1.5" transform="translate(1275 235)"/><circle class="b" cx="1.5" cy="1.5" r="1.5" transform="translate(1242 235)"/><circle class="b" cx="1.5" cy="1.5" r="1.5" transform="translate(1275 248)"/><circle class="b" cx="1.5" cy="1.5" r="1.5" transform="translate(1242 248)"/><circle class="b" cx="1.5" cy="1.5" r="1.5" transform="translate(1275 261)"/><circle class="b" cx="1.5" cy="1.5" r="1.5" transform="translate(1242 261)"/><circle class="b" cx="1.5" cy="1.5" r="1.5" transform="translate(1286 235)"/><circle class="b" cx="1.5" cy="1.5" r="1.5" transform="translate(1253 235)"/><circle class="b" cx="1.5" cy="1.5" r="1.5" transform="translate(1286 248)"/><circle class="b" cx="1.5" cy="1.5" r="1.5" transform="translate(1253 248)"/><circle class="b" cx="1.5" cy="1.5" r="1.5" transform="translate(1286 261)"/><circle class="b" cx="1.5" cy="1.5" r="1.5" transform="translate(1253 261)"/><circle class="b" cx="1.5" cy="1.5" r="1.5" transform="translate(1297 235)"/><circle class="b" cx="1.5" cy="1.5" r="1.5" transform="translate(1264 235)"/><circle class="b" cx="1.5" cy="1.5" r="1.5" transform="translate(1297 248)"/><circle class="b" cx="1.5" cy="1.5" r="1.5" transform="translate(1264 248)"/><circle class="b" cx="1.5" cy="1.5" r="1.5" transform="translate(1297 261)"/><circle class="b" cx="1.5" cy="1.5" r="1.5" transform="translate(1264 261)"/></g><g transform="translate(-588 206)"><circle class="b" cx="1.5" cy="1.5" r="1.5" transform="translate(1275 235)"/><circle class="b" cx="1.5" cy="1.5" r="1.5" transform="translate(1242 235)"/><circle class="b" cx="1.5" cy="1.5" r="1.5" transform="translate(1275 248)"/><circle class="b" cx="1.5" cy="1.5" r="1.5" transform="translate(1242 248)"/><circle class="b" cx="1.5" cy="1.5" r="1.5" transform="translate(1275 261)"/><circle class="b" cx="1.5" cy="1.5" r="1.5" transform="translate(1242 261)"/><circle class="b" cx="1.5" cy="1.5" r="1.5" transform="translate(1286 235)"/><circle class="b" cx="1.5" cy="1.5" r="1.5" transform="translate(1253 235)"/><circle class="b" cx="1.5" cy="1.5" r="1.5" transform="translate(1286 248)"/><circle class="b" cx="1.5" cy="1.5" r="1.5" transform="translate(1253 248)"/><circle class="b" cx="1.5" cy="1.5" r="1.5" transform="translate(1286 261)"/><circle class="b" cx="1.5" cy="1.5" r="1.5" transform="translate(1253 261)"/><circle class="b" cx="1.5" cy="1.5" r="1.5" transform="translate(1297 235)"/><circle class="b" cx="1.5" cy="1.5" r="1.5" transform="translate(1264 235)"/><circle class="b" cx="1.5" cy="1.5" r="1.5" transform="translate(1297 248)"/><circle class="b" cx="1.5" cy="1.5" r="1.5" transform="translate(1264 248)"/><circle class="b" cx="1.5" cy="1.5" r="1.5" transform="translate(1297 261)"/><circle class="b" cx="1.5" cy="1.5" r="1.5" transform="translate(1264 261)"/></g><g transform="translate(-654 206)"><circle class="b" cx="1.5" cy="1.5" r="1.5" transform="translate(1275 235)"/><circle class="b" cx="1.5" cy="1.5" r="1.5" transform="translate(1242 235)"/><circle class="b" cx="1.5" cy="1.5" r="1.5" transform="translate(1275 248)"/><circle class="b" cx="1.5" cy="1.5" r="1.5" transform="translate(1242 248)"/><circle class="b" cx="1.5" cy="1.5" r="1.5" transform="translate(1275 261)"/><circle class="b" cx="1.5" cy="1.5" r="1.5" transform="translate(1242 261)"/><circle class="b" cx="1.5" cy="1.5" r="1.5" transform="translate(1286 235)"/><circle class="b" cx="1.5" cy="1.5" r="1.5" transform="translate(1253 235)"/><circle class="b" cx="1.5" cy="1.5" r="1.5" transform="translate(1286 248)"/><circle class="b" cx="1.5" cy="1.5" r="1.5" transform="translate(1253 248)"/><circle class="b" cx="1.5" cy="1.5" r="1.5" transform="translate(1286 261)"/><circle class="b" cx="1.5" cy="1.5" r="1.5" transform="translate(1253 261)"/><circle class="b" cx="1.5" cy="1.5" r="1.5" transform="translate(1297 235)"/><circle class="b" cx="1.5" cy="1.5" r="1.5" transform="translate(1264 235)"/><circle class="b" cx="1.5" cy="1.5" r="1.5" transform="translate(1297 248)"/><circle class="b" cx="1.5" cy="1.5" r="1.5" transform="translate(1264 248)"/><circle class="b" cx="1.5" cy="1.5" r="1.5" transform="translate(1297 261)"/><circle class="b" cx="1.5" cy="1.5" r="1.5" transform="translate(1264 261)"/></g><g transform="translate(-654 167)"><circle class="b" cx="1.5" cy="1.5" r="1.5" transform="translate(1275 235)"/><circle class="b" cx="1.5" cy="1.5" r="1.5" transform="translate(1242 235)"/><circle class="b" cx="1.5" cy="1.5" r="1.5" transform="translate(1275 248)"/><circle class="b" cx="1.5" cy="1.5" r="1.5" transform="translate(1242 248)"/><circle class="b" cx="1.5" cy="1.5" r="1.5" transform="translate(1275 261)"/><circle class="b" cx="1.5" cy="1.5" r="1.5" transform="translate(1242 261)"/><circle class="b" cx="1.5" cy="1.5" r="1.5" transform="translate(1286 235)"/><circle class="b" cx="1.5" cy="1.5" r="1.5" transform="translate(1253 235)"/><circle class="b" cx="1.5" cy="1.5" r="1.5" transform="translate(1286 248)"/><circle class="b" cx="1.5" cy="1.5" r="1.5" transform="translate(1253 248)"/><circle class="b" cx="1.5" cy="1.5" r="1.5" transform="translate(1286 261)"/><circle class="b" cx="1.5" cy="1.5" r="1.5" transform="translate(1253 261)"/><circle class="b" cx="1.5" cy="1.5" r="1.5" transform="translate(1297 235)"/><circle class="b" cx="1.5" cy="1.5" r="1.5" transform="translate(1264 235)"/><circle class="b" cx="1.5" cy="1.5" r="1.5" transform="translate(1297 248)"/><circle class="b" cx="1.5" cy="1.5" r="1.5" transform="translate(1264 248)"/><circle class="b" cx="1.5" cy="1.5" r="1.5" transform="translate(1297 261)"/><circle class="b" cx="1.5" cy="1.5" r="1.5" transform="translate(1264 261)"/></g><g transform="translate(-654 128)"><circle class="b" cx="1.5" cy="1.5" r="1.5" transform="translate(1275 235)"/><circle class="b" cx="1.5" cy="1.5" r="1.5" transform="translate(1242 235)"/><circle class="b" cx="1.5" cy="1.5" r="1.5" transform="translate(1275 248)"/><circle class="b" cx="1.5" cy="1.5" r="1.5" transform="translate(1242 248)"/><circle class="b" cx="1.5" cy="1.5" r="1.5" transform="translate(1275 261)"/><circle class="b" cx="1.5" cy="1.5" r="1.5" transform="translate(1242 261)"/><circle class="b" cx="1.5" cy="1.5" r="1.5" transform="translate(1286 235)"/><circle class="b" cx="1.5" cy="1.5" r="1.5" transform="translate(1253 235)"/><circle class="b" cx="1.5" cy="1.5" r="1.5" transform="translate(1286 248)"/><circle class="b" cx="1.5" cy="1.5" r="1.5" transform="translate(1253 248)"/><circle class="b" cx="1.5" cy="1.5" r="1.5" transform="translate(1286 261)"/><circle class="b" cx="1.5" cy="1.5" r="1.5" transform="translate(1253 261)"/><circle class="b" cx="1.5" cy="1.5" r="1.5" transform="translate(1297 235)"/><circle class="b" cx="1.5" cy="1.5" r="1.5" transform="translate(1264 235)"/><circle class="b" cx="1.5" cy="1.5" r="1.5" transform="translate(1297 248)"/><circle class="b" cx="1.5" cy="1.5" r="1.5" transform="translate(1264 248)"/><circle class="b" cx="1.5" cy="1.5" r="1.5" transform="translate(1297 261)"/><circle class="b" cx="1.5" cy="1.5" r="1.5" transform="translate(1264 261)"/></g><g transform="translate(-654 245)"><circle class="b" cx="1.5" cy="1.5" r="1.5" transform="translate(1275 235)"/><circle class="b" cx="1.5" cy="1.5" r="1.5" transform="translate(1242 235)"/><circle class="b" cx="1.5" cy="1.5" r="1.5" transform="translate(1275 248)"/><circle class="b" cx="1.5" cy="1.5" r="1.5" transform="translate(1242 248)"/><circle class="b" cx="1.5" cy="1.5" r="1.5" transform="translate(1275 261)"/><circle class="b" cx="1.5" cy="1.5" r="1.5" transform="translate(1242 261)"/><circle class="b" cx="1.5" cy="1.5" r="1.5" transform="translate(1286 235)"/><circle class="b" cx="1.5" cy="1.5" r="1.5" transform="translate(1253 235)"/><circle class="b" cx="1.5" cy="1.5" r="1.5" transform="translate(1286 248)"/><circle class="b" cx="1.5" cy="1.5" r="1.5" transform="translate(1253 248)"/><circle class="b" cx="1.5" cy="1.5" r="1.5" transform="translate(1286 261)"/><circle class="b" cx="1.5" cy="1.5" r="1.5" transform="translate(1253 261)"/><circle class="b" cx="1.5" cy="1.5" r="1.5" transform="translate(1297 235)"/><circle class="b" cx="1.5" cy="1.5" r="1.5" transform="translate(1264 235)"/><circle class="b" cx="1.5" cy="1.5" r="1.5" transform="translate(1297 248)"/><circle class="b" cx="1.5" cy="1.5" r="1.5" transform="translate(1264 248)"/><circle class="b" cx="1.5" cy="1.5" r="1.5" transform="translate(1297 261)"/><circle class="b" cx="1.5" cy="1.5" r="1.5" transform="translate(1264 261)"/></g><g transform="translate(-588 167)"><circle class="b" cx="1.5" cy="1.5" r="1.5" transform="translate(1275 235)"/><circle class="b" cx="1.5" cy="1.5" r="1.5" transform="translate(1242 235)"/><circle class="b" cx="1.5" cy="1.5" r="1.5" transform="translate(1275 248)"/><circle class="b" cx="1.5" cy="1.5" r="1.5" transform="translate(1242 248)"/><circle class="b" cx="1.5" cy="1.5" r="1.5" transform="translate(1275 261)"/><circle class="b" cx="1.5" cy="1.5" r="1.5" transform="translate(1242 261)"/><circle class="b" cx="1.5" cy="1.5" r="1.5" transform="translate(1286 235)"/><circle class="b" cx="1.5" cy="1.5" r="1.5" transform="translate(1253 235)"/><circle class="b" cx="1.5" cy="1.5" r="1.5" transform="translate(1286 248)"/><circle class="b" cx="1.5" cy="1.5" r="1.5" transform="translate(1253 248)"/><circle class="b" cx="1.5" cy="1.5" r="1.5" transform="translate(1286 261)"/><circle class="b" cx="1.5" cy="1.5" r="1.5" transform="translate(1253 261)"/><circle class="b" cx="1.5" cy="1.5" r="1.5" transform="translate(1297 235)"/><circle class="b" cx="1.5" cy="1.5" r="1.5" transform="translate(1264 235)"/><circle class="b" cx="1.5" cy="1.5" r="1.5" transform="translate(1297 248)"/><circle class="b" cx="1.5" cy="1.5" r="1.5" transform="translate(1264 248)"/><circle class="b" cx="1.5" cy="1.5" r="1.5" transform="translate(1297 261)"/><circle class="b" cx="1.5" cy="1.5" r="1.5" transform="translate(1264 261)"/></g><g transform="translate(-588 245)"><circle class="b" cx="1.5" cy="1.5" r="1.5" transform="translate(1275 235)"/><circle class="b" cx="1.5" cy="1.5" r="1.5" transform="translate(1242 235)"/><circle class="b" cx="1.5" cy="1.5" r="1.5" transform="translate(1275 248)"/><circle class="b" cx="1.5" cy="1.5" r="1.5" transform="translate(1242 248)"/><circle class="b" cx="1.5" cy="1.5" r="1.5" transform="translate(1275 261)"/><circle class="b" cx="1.5" cy="1.5" r="1.5" transform="translate(1242 261)"/><circle class="b" cx="1.5" cy="1.5" r="1.5" transform="translate(1286 235)"/><circle class="b" cx="1.5" cy="1.5" r="1.5" transform="translate(1253 235)"/><circle class="b" cx="1.5" cy="1.5" r="1.5" transform="translate(1286 248)"/><circle class="b" cx="1.5" cy="1.5" r="1.5" transform="translate(1253 248)"/><circle class="b" cx="1.5" cy="1.5" r="1.5" transform="translate(1286 261)"/><circle class="b" cx="1.5" cy="1.5" r="1.5" transform="translate(1253 261)"/><circle class="b" cx="1.5" cy="1.5" r="1.5" transform="translate(1297 235)"/><circle class="b" cx="1.5" cy="1.5" r="1.5" transform="translate(1264 235)"/><circle class="b" cx="1.5" cy="1.5" r="1.5" transform="translate(1297 248)"/><circle class="b" cx="1.5" cy="1.5" r="1.5" transform="translate(1264 248)"/><circle class="b" cx="1.5" cy="1.5" r="1.5" transform="translate(1297 261)"/><circle class="b" cx="1.5" cy="1.5" r="1.5" transform="translate(1264 261)"/></g></g><path class="b" d="M89.1,78.4C57.67,73.151-15.377,63.756,6.28,32.788L0,19.6l5.166-.482L22.679,17.48q1.463-1.045,3.044-2.116c50.619-34.257,176.545-7.913,178.559,23.3-1.473,34.667-47.807,41.3-83.549,41.3C108.02,79.957,96.639,79.118,89.1,78.4Z" transform="translate(1065.837 1033.575) rotate(180)"/><text class="c" transform="translate(964.208 998.294)"><tspan x="-73.831" y="0">tweak the criteria</tspan><tspan x="-23.909" y="17">rating</tspan></text><g transform="translate(-3.155)"><g transform="translate(1080.11 950.294)"><g transform="translate(0 0)"><g transform="translate(0 0)"><g transform="translate(0)"><g transform="translate(2.034 121.633)"><path class="d" d="M170.9,146.921c.3.011.209-.078.1-.1Zm-9,6.692c-8.515,1.01-17.04.086-25.513-.84-17.165-1.273-34.21,2.436-51.409,1.3-21.494-.906-43.046-2.607-64.469.26-5.926.137-15.377,1.736-13.227-7.44,2.822-23.591,6.6-47.064,10.639-70.474C21.348,63.3,21.6,40.6,30.978,31.472c1.371-1.253,6.291-5.306,7.592-5.85,6.466-2.409,18.124-4.288,22.933-9.393,3.9-6.594,2.084-15.593,8.141-20.9,5.309-4.336,16.9-3.42,22.573-.164,4.478,2.9,5.18,8.547,7.97,12.72a29.136,29.136,0,0,0,3.247,4.187c2.247,2.164,10.141,4.438,12.42,4.856,12.863,2.637,19.277,4.266,29.394,12.817,26.435,27,22.688,74.749,30,110.053.3,3.881,2.658,9.148-1.55,11.647C170.077,153.18,165.815,152.991,161.9,153.613Z" transform="translate(-4.631 7.609)"/><path class="e" d="M64.469,6.773c-.031-.092-.179-.108-.2,0a27.551,27.551,0,0,1-1.721,5.009A14.272,14.272,0,0,1,59.7,16.013a12.67,12.67,0,0,1-9.312,3.734l-.086,0c-.016-.12-.035-.239-.052-.358l-.024-.179a1.95,1.95,0,0,0-3.806-.531c-.289.092-.578.184-.865.28l-.057.021c-.482.184-2.117,1-2.416.781-.66-.475-1.415.07-1.666.677a13.124,13.124,0,0,0-.612,3.3l-.018.14-.02.168c-9.348,2.431-14.594,11.787-17.273,20.407a140.426,140.426,0,0,0-3.354,14.287c-1.021,5.127-1.962,10.268-2.957,15.4C15.213,84.248,13.354,94.38,11.74,104.55l-.468,2.953c-1.479,9.351-2.919,18.7-4.13,28.091q-.981,7.6-1.859,15.208-.159,1.358-.315,2.715l-.156,1.36a5.849,5.849,0,0,0,.229,3.563c1.306,2.473,5.26,2.455,5.484-.712A1.752,1.752,0,0,0,10,156.281l0-.053c0-.032.007-.055.008-.066.117-.63.148-1.3.219-1.931q.235-2.037.464-4.075.447-3.884.908-7.766.944-7.873,2-15.727l.7-5.178c2.338-17.261,4.775-34.518,7.981-51.642q1.31-6.992,2.691-13.969A99.189,99.189,0,0,1,28.3,42.828,39.025,39.025,0,0,1,40.674,24.812c-.09.871-.155,1.747-.237,2.619q-.32,3.357-.668,6.709a179.84,179.84,0,0,1-3.878,24.107,101.382,101.382,0,0,1-3.524,11.581q-1.044,2.8-2.288,5.508c-.825,1.785-2.269,3.694-2.356,5.683a1.7,1.7,0,0,0,1.813,1.64c-.415,3.665-.651,7.367-.9,11.023-.362,5.3-.652,10.6-1.075,15.891-.757,9.477-1.706,18.942-2.7,28.4-.2,1.874-.411,3.748-.623,5.62l-.177,1.572a5.1,5.1,0,0,0,.241,3.146,15.593,15.593,0,0,0-1.008,3.615c-.244,1.555.645,3.3,2.459,3.229.206-.006.412-.024.618-.047a23.2,23.2,0,0,0,5.105.744c2.23.016,4.465-.03,6.7-.046q6.472-.043,12.944-.093c15.62-.126,31.248-.119,46.866-.37l6.249-.1c5.729-.092,11.458-.2,17.184-.407q5.915-.215,11.827-.447l.8-.031a88.922,88.922,0,0,0,10.4-.725.15.15,0,0,0,.11-.182l0-.021.15-.034c.087.376,1.9-1.205,1.888-2.255.752-.979.4-2.543.32-3.676-.078-1.1-.177-2.211-.264-3.315-.186-2.359-.345-4.72-.535-7.079-.768-9.511-1.431-19.047-1.861-28.578-.217-4.8-.392-9.612-.576-14.417-.083-2.188-.2-4.377-.412-6.555l-.056-.544c-.235-2.208-.213-4.583-1.026-6.664a.032.032,0,0,0-.061,0,22.077,22.077,0,0,0-1.066,6.6c-.029-.009-.058-.013-.09-.02A33.409,33.409,0,0,1,137.6,85.2c-.146-.09-.287-.184-.43-.276-1.691-5.174-3.65-10.264-5.452-15.4a179.761,179.761,0,0,1-9.751-51.928,155.751,155.751,0,0,0,13.984,7.488l.441.225c4.633,2.37,9.068,5.06,12.367,9.171,2.875,3.58,4.754,7.941,6.511,12.145,1.888,4.518,3.589,9.117,5.146,13.758a228.954,228.954,0,0,1,7.51,28.811,289.6,289.6,0,0,1,4.129,29.067q.689,7.466,1.229,14.947.269,3.787.486,7.58c.072,1.228.125,2.458.206,3.685a8.133,8.133,0,0,0,.291,2.11,7.171,7.171,0,0,0,.862,1.523,1.539,1.539,0,0,0,2.629,0l.239-.462a4.88,4.88,0,0,0,.649-1.944,17.918,17.918,0,0,0-.081-2.048c-.074-1.364-.159-2.73-.244-4.094q-.269-4.3-.6-8.606-.668-8.615-1.74-17.188c-2.537-20.077-6.2-40.049-13.191-59.1-1.729-4.711-3.657-9.384-5.833-13.906-2.1-4.372-4.767-8.5-8.632-11.511-3.558-2.772-7.693-4.627-11.8-6.428l-.513-.225A137.118,137.118,0,0,0,122,16.907a1.557,1.557,0,0,1,.3.058c.105.034.168-.1.1-.177-.273-.3-.387-.614-.7-.912-.217-.206-.442-.4-.674-.588l-.334-.265a5.173,5.173,0,0,0-2.02-1.149,1.108,1.108,0,0,0-1.314,1.523.429.429,0,0,0-.687.137c-3.574,9.22-5.92,18.98-10.73,27.691-3.551,6.436-8.316,12.378-14.64,16.265a25.026,25.026,0,0,1-11.3,3.945,17.1,17.1,0,0,1-10.139-2.583c-5.943-3.667-9.823-10.1-12.591-16.343A92.01,92.01,0,0,1,50.786,22.9a14.958,14.958,0,0,0,11-4.8,13.541,13.541,0,0,0,3.006-5.569A9.243,9.243,0,0,0,64.469,6.773ZM98.395,1.385A1.987,1.987,0,0,0,95.916.572a2.02,2.02,0,0,0-1.149,2.341A10.571,10.571,0,0,0,96.24,6.3a17.889,17.889,0,0,0,2.172,2.917,25.178,25.178,0,0,0,5.025,4.491,19.808,19.808,0,0,0,6.261,2.7l.525.123c1.719.393,4.165.844,5.6-.091a.106.106,0,0,0,0-.182,8.855,8.855,0,0,0-2.7-.891,24.446,24.446,0,0,1-2.875-1A22.82,22.82,0,0,1,105.09,11.3a17.7,17.7,0,0,1-4.138-4.444,28.09,28.09,0,0,1-1.41-2.672C99.1,3.276,98.885,2.263,98.395,1.385Z" transform="translate(-4.648 8.089)"/></g><path class="d" d="M13.758,60.146C15.295,41.4,19.975,24.8,41.964,24.094a76.757,76.757,0,0,1,29.179,6.1c22.18,11.125,29.218,51.778,9.676,68.142a.208.208,0,0,1,.007.349,75.616,75.616,0,0,1-13.019,6.831c-11.972,5.063-26.065,7.263-38.275,1.77-18.633-7.931-18.912-30-15.774-47.14Z" transform="translate(25.36 28.323)"/><path class="e" d="M-29.25,54.37a5.571,5.571,0,0,1-1.625-2.61,5.1,5.1,0,0,1,0-2.858c.3-.99.948-1.779.8-2.809a2.322,2.322,0,0,0-.068-.311c-.56-1.94-1.936-3.34-1.444-5.49a3.73,3.73,0,0,1,.765-1.584c-.04-.466-.076-.936-.1-1.407a7.511,7.511,0,0,1,.083-6.006,22.507,22.507,0,0,1,.489-2.829,5.432,5.432,0,0,1,.3-2.446,34.655,34.655,0,0,1,1.661-3.738,1.375,1.375,0,0,1,.144-1,9.362,9.362,0,0,1,1.235-1.568q.483-.861.967-1.706c.148-.258.313-.545.493-.848a2.916,2.916,0,0,1-.234-2.884,1.331,1.331,0,0,1,1.178-.676c.485.029.974.051,1.467.069a10.471,10.471,0,0,1,3.078-2.682c1.13-.959,2.277-1.9,3.392-2.861l.95-.82.006-.022c.233-.849.495-1.687.757-2.529.164-.522.213-1.068.722-1.353a10.417,10.417,0,0,1,3.912-.788l.362-.32a5.7,5.7,0,0,1,.242-4.516,1.109,1.109,0,0,1,1.513-.4A5.065,5.065,0,0,0-4.7-1.7C-2.9-3.082,4.36-9.342,5.482-10c.014-.024.025-.047.04-.071A9.108,9.108,0,0,1,7.78-12.539l.369-.385a4.689,4.689,0,0,0-.851-2.13c-.049-.072-.105-.141-.161-.208a1.076,1.076,0,0,1,1.3-1.682c.081.036.161.072.242.11.861.384,1.813.8,2.8,1.153.363-.136.733-.259,1.07-.395l3.613-1.453c.595-.239,1.224-.442,1.8-.723a2.771,2.771,0,0,1,2.927-2.165,2.6,2.6,0,0,0-.368-.741c-.049-.069-.1-.137-.159-.2-.714-.831.24-2.372,1.261-1.633l.217.155c.284.2.574.386.868.567a1.975,1.975,0,0,1,1.553-.035A15.98,15.98,0,0,1,27.7-20.585c.044.031.089.056.134.085a2.94,2.94,0,0,1,2.154-1.076h.042a2.816,2.816,0,0,1,2.638-1.258,2.678,2.678,0,0,1,2.327-2.508,2.691,2.691,0,0,1,2.937,1.918l.334,1.088a11.79,11.79,0,0,1,3.271-1.124,16.887,16.887,0,0,1,7.649.752c.25.072.5.146.75.22.357-.414.693-.838,1.013-1.234a1.059,1.059,0,0,1,1.791.741,1.438,1.438,0,0,0,.58,1.352,8.585,8.585,0,0,0,1.49.07,4.9,4.9,0,0,0,2.1-.385,2.766,2.766,0,0,0,1.155-.953,2.775,2.775,0,0,1,4.334-.455,2.845,2.845,0,0,1,3.273,1.182,3.275,3.275,0,0,0,1.928,1.055c.665.186,1.346.327,2.029.451a1.056,1.056,0,0,1,1.416-.344c.319.235.628.477.933.725a13.192,13.192,0,0,0,6.938-.582c1.9-.777,3.644,1.346,3.331,3.128.55.286,1.147.477,1.69.777a6.7,6.7,0,0,1,2.753,2.909c.106.218.2.439.294.662.443.361.881.731,1.309,1.122l2.134-1.1a1.057,1.057,0,0,1,1.536.625A6.435,6.435,0,0,0,93.145-9.8a48.662,48.662,0,0,1,5.6,3.443c2.058.645,4.245,1.021,6.043,1.445a1.02,1.02,0,0,1,.6,1.485q-.551.85-1.1,1.7,1.535,1.5,2.891,3.123a58.035,58.035,0,0,1,6.525,9.778l2.244.9a1.059,1.059,0,0,1,.461,1.745,6.681,6.681,0,0,0-.739.927,12.329,12.329,0,0,0,4.051,4.4,2.737,2.737,0,0,1,1.142,1.384c.181.121.36.251.537.383a1.074,1.074,0,0,1,.213,1.664,6.684,6.684,0,0,0-1.108,1.189c-.069.253-.141.509-.213.762a18.851,18.851,0,0,1,3.981,5.17.89.89,0,0,1,.685.134c1.809,1.337,1.863,3.468,1.135,5.372a19.457,19.457,0,0,1-.69,8.59,8.069,8.069,0,0,1,2.055,4.261,87.129,87.129,0,0,1,.64,9.661,9.884,9.884,0,0,1,2.559,4.319l1.216.6a1.2,1.2,0,0,1,.6,1.051,8.532,8.532,0,0,1-1.954,4.832,10.642,10.642,0,0,1-1.653,2.986,22.674,22.674,0,0,0-1.424,1.96,1.25,1.25,0,0,0-.092.179,3.978,3.978,0,0,1,.434.706,4.577,4.577,0,0,1-.419,5.549,1.382,1.382,0,0,1,.083,1.926c-3.177,3.631-5.826,8.046-10.235,9.975a1.106,1.106,0,0,0-.054.1,6.5,6.5,0,0,1,.284,5.49.552.552,0,0,1-.018.058c-.39,1.165-1.106,3.031-2.4,3.394a4.345,4.345,0,0,1-1.2.164q-1.538,1.482-3.072,2.968a10.324,10.324,0,0,0-.164,1.485,1.327,1.327,0,0,1-1.661,1.266c-.3-.087-1.946-1.689-2.248-1.68-.152.152-.3.3-.448.459a4.96,4.96,0,0,0-1.361,2.07,2.935,2.935,0,0,1-2.053,2.645,1.129,1.129,0,0,1-1.713,0,1.5,1.5,0,0,0-.11-.109l-.172-.02q-.4,1.183-.795,2.362a2.806,2.806,0,0,1-3.93,1.643c-.228.136-.452.282-.676.427-.34.217-.685.439-1.039.648-.02.058-.04.117-.058.173a1.244,1.244,0,0,1-1.762.67,5.179,5.179,0,0,1-.555.143,5.585,5.585,0,0,1-2.936-.189,9.02,9.02,0,0,0-2.069-.739c-.046,0-.093,0-.14,0a5.766,5.766,0,0,1-3.048,2.645,5.658,5.658,0,0,1-4.147-.273,9.615,9.615,0,0,1-1.3,1.96.794.794,0,0,1-1.108,0q-.848-.752-1.689-1.51c-.406-.156-.816-.344-1.244-.518a23.875,23.875,0,0,1-4.041-1.563,6.838,6.838,0,0,1-1.595-1.407,11.478,11.478,0,0,1-2.354-1.819,2.36,2.36,0,0,1-1.081-.262,4.5,4.5,0,0,1-2.356-3.9,27.476,27.476,0,0,1-2.127-9.021,22.443,22.443,0,0,1,0-3.08,5.4,5.4,0,0,1,.508-1.855,5.723,5.723,0,0,0,.24-.623c-.016-.69-.025-1.38-.033-2.068a3.874,3.874,0,0,0-.979-1.575,2.527,2.527,0,0,1-.392-3.033L61.4,85.65c-.119-2.413-.7-6.252.584-6.655-.052-.358-.161-.712-.224-1.069a6.491,6.491,0,0,1,.788-4.738c.19-.311.352-.587.484-.856l.249-1.478c.128-.759.253-1.525.361-2.3.056-.981.107-1.962.163-2.946q.077-1.358.17-2.717c-.025-.405-.061-.811-.112-1.216-.307-2.417-1.294-3.311-3-4.991-.269-.043-.535-.09-.8-.143a12.157,12.157,0,0,0-3.753-.5c-1.364.152-2.584.741-3.91-.011-.39-.224-1.247-.842-1.321-1.333a.3.3,0,0,0-.02-.078c-.092-.013-.21-.025-.284-.027-1.052-.036-2.058.378-3.119.264a4.881,4.881,0,0,1-3.119-1.519,7.787,7.787,0,0,1-2.9.208,6.44,6.44,0,0,1-2.293-.775c-.531-.287-.363-.37-.94-.137-1.314.533-2.5,1.236-3.984.871a4.233,4.233,0,0,1-1.988-1.16,6.787,6.787,0,0,1-.506-.508c-.7.356-2.472,1.16-2.763,1.232a4.516,4.516,0,0,1-2.5-.1c-.589-.2-1.31-.735-1.827-.844-.67-.143-2.156.789-2.956,1.109a5.628,5.628,0,0,1-4.306.121c-.488-.2-1.438-.995-1.8-.988a39.845,39.845,0,0,0-2.747,6.2c-2.013,5.914-2.535,24.378-1.605,29.089.036.139.074.276.112.414a67,67,0,0,0,4.241,12.08,19.733,19.733,0,0,0,7.871,8.8,22.324,22.324,0,0,0,12.23,2.3,42.472,42.472,0,0,0,7.922-1.391c1.357-.352,2.7-.744,4.042-1.152.584-.177,1.178-.342,1.751-.549a2.681,2.681,0,0,1,2.512.074,1.828,1.828,0,0,1,.649,2.473C52,112,50.628,112.089,49.3,112.465c-1.348.384-2.7.75-4.062,1.08a52.677,52.677,0,0,1-7.933,1.331,27.313,27.313,0,0,1-14.078-2.307c-.493-.237-.967-.491-1.426-.764.17.237.343.475.517.71a1.555,1.555,0,0,1-.553,2.117c-.215.112-.43.219-.647.325-.029.069-.061.139-.1.208a4.745,4.745,0,0,1-3.242,2.3,19.232,19.232,0,0,1-4.931.063l-4.445-.135c-.349-.008-.7-.02-1.048-.032q-2.64-.079-5.275-.159a5.261,5.261,0,0,1-2.965-.553,4.392,4.392,0,0,1-1.646-1.211A6.614,6.614,0,0,1-3.342,115a10.689,10.689,0,0,1-2.279-2c-1.171.369-2.812.026-3.041-1.446-.367-2.354-3.425-3.36-4.854-5.062a7.671,7.671,0,0,1-1.934-4.9c-2.907-1.407-4.487-5.114-4.857-8.259-.172-1.458-.145-3.02-.394-4.5a2.489,2.489,0,0,1-.29-.379,31.26,31.26,0,0,1-1.926-3.642,5.025,5.025,0,0,0-2.636-.943,2.088,2.088,0,0,1-.553-4.081l.032-.011a5.876,5.876,0,0,1,.181-4.769c-.031-.157-.06-.311-.089-.468a7.138,7.138,0,0,1-1.9-5.074,6.213,6.213,0,0,0-1.926-.914,1.236,1.236,0,0,1-.291-2.227,3.748,3.748,0,0,0,.817-.829,5.259,5.259,0,0,1,.8-4.989l-2.17-2.782a1.6,1.6,0,0,1,0-2.238Q-29.954,54.927-29.25,54.37Z" transform="translate(31.691 25.362)"/><g transform="translate(25.522 83.105)"><path class="e" d="M7,14.049c2.135,14.446,17.037,16.043,19.685,1.7a1.12,1.12,0,0,1-.667-1.264c.015-3.125-.955-6.428-3.773-8.167-2.912-1.793-6.32-1.971-9.691-1.926C6.122,4.241,6.257,9.619,7,14.049M29.016,7.766c2.018-.085,4.572-.014,6.38,1.216A7.637,7.637,0,0,1,38.49,5.449a142.119,142.119,0,0,1-14.73-.706,9.3,9.3,0,0,1,2.965,3.382,5.812,5.812,0,0,1,2.291-.358m8.9,7.814c5.6,19.272,19.567,10.872,21.09,8.4C61.75,19.9,62.267,9.96,59.874,7.3,56.449,4.9,51.6,5.52,47.553,5.461c-7.434.1-12.714,2.325-9.64,10.12M.39,6.716a8.155,8.155,0,0,1,4.559.431A6.1,6.1,0,0,1,8.294,3.068c.187-.234.159-.36.8-.325,3.917-1.178,8.3-.555,12.065.653,5.945.5,12.183.9,18.178,1.586C44.951,2.459,61.9,2.089,62.953,8.308c1.325-.2,3.581-1.241,4.695.174,8.166-1.385,16.6.54,24.806,1.4,2.064.38,3.128,4.479.784,4.423-1.318-.358.041-2.552-1.734-2.717C83.592,10.72,75.851,9.493,67.857,9.35c.278,1.381-5.288,1.471-5.37.664-.012.006-.024.01-.036.015,1.375,5.127.134,12.507-2.352,15.686-3.482,4.163-12.225,5.358-16.1,2.679-5-2.472-10.2-14.883-8.742-19.005a17.14,17.14,0,0,0-8.026-.16c.63,1.781,1.718,6.164.153,6.544.287,8.7-7.63,14.133-14.928,10.563C6.137,23.369,3.928,13.979,4.7,8.28,3.915,9.8-2.688,8.145.39,6.716" transform="translate(0.422 -2.113)"/></g></g></g></g></g><path class="e" d="M92.456,89.078c-2.42-2.812-6.495-3.007-9.87-2.3-2.166.451-4.275,1.2-6.476,1.481a21.517,21.517,0,0,1-3.1.15c-1.017-.019-2.035-.224-3.048-.186a.159.159,0,0,0-.08.293,11.911,11.911,0,0,0,4.9,1.295,2.9,2.9,0,0,1-.029.341c-.045.268-.086.534-.119.8-.074.609-.158,1.216-.241,1.823a35.074,35.074,0,0,1-.5,3.6l-.05.2a1.793,1.793,0,0,0-.06.67l-.067-.03-.211-.1-.138-.065a2.933,2.933,0,0,0-1.579-.347.855.855,0,0,0-.834.833c-.011,2.165,2.906,2.861,4.574,3.275l.489.121a34.812,34.812,0,0,0,6.477,1.081c3.506.174,7.445-.793,9.738-3.636C94.371,95.721,94.763,91.759,92.456,89.078ZM76.536,98.172A3.017,3.017,0,0,1,82.061,96.8c.511-2.881,8.074-.249,7.482.324C87.3,99.3,83.9,99.491,80.977,99.089A38.744,38.744,0,0,1,76.536,98.172Zm4.444-8.541,1.007-.145.4-.055c2.5-.334,5.3-.507,7.355,1.093a3.543,3.543,0,0,1,1.328,2.164c-1.942-.288-3.891-.507-5.845-.69l-.533-.049q-1.835-.165-3.667-.348l-.868-.088-.868-.09a24.124,24.124,0,0,0-2.751-.067c-.041-.348-.1-1.1-.183-1.439a26.37,26.37,0,0,0,4.373-.252ZM76.346,75.065c-1.492.907-3.766,3.022-2.16,5.27,1.889,1.982,4.609-.291,5.95-1.319,1.243-.8,2.64,1.252,1.486,2.183C71.936,88.37,68,75.3,75.591,74,76.427,73.855,76.737,74.784,76.346,75.065Zm-2.67,3.821-.072-.039-.024-.015q-.063-.041.08.009l.072.026v.051C73.713,78.906,73.694,78.9,73.676,78.886Zm19.108-8.057v-.044c0-1.26-.737-4.137-2.55-4.137-1.133,0-1.821,1.958-1.94,3.976l0,.082c-.053,1.255.292,4,1.944,4,1.67,0,2.533-2.6,2.55-3.875Zm-26.7-.4v-.044c0-1.26.737-4.137,2.55-4.137,1.1,0,1.787,1.861,1.93,3.825l.01.151c.072,1.212-.251,4.08-1.94,4.08-1.67,0-2.533-2.6-2.55-3.875ZM91.749,58.057c-1.48-.225-3.44.2-4.131,1.708a.977.977,0,0,0,.832,1.449c1.873.09,3.553-.327,5.2.891a8.306,8.306,0,0,1,1.8,1.974l.189.276.156.227a2.625,2.625,0,0,1,.61,1.641.342.342,0,0,0,.34.34c1.078-.044,1.194-1.4,1.052-2.207a8.36,8.36,0,0,0-2-4.058A6.753,6.753,0,0,0,91.749,58.057ZM71.361,59.884a5.779,5.779,0,0,0-3.522-.812c-2.358.19-6.313,2.194-5.793,5.074a1.454,1.454,0,0,0,2.124.864c.783-.53.973-1.353,1.556-2.045a5.893,5.893,0,0,1,3.731-1.908l.118-.011c.425-.036,2.569-.026,2.254.774-.062.157.172.281.279.162C72.764,61.255,72.02,60.308,71.361,59.884Z" transform="translate(1060.764 977.527)"/></g></g></svg>