<svg xmlns="http://www.w3.org/2000/svg" width="451" height="263.132" viewBox="0 0 451 263.132"><defs><style>.a{fill:#0d0e0c;}.b,.d{fill:#fff;}.b,.c{fill-rule:evenodd;}.d{stroke:#fff;font-size:27px;font-family:Alexross-Regular, Alexross;}</style></defs><g transform="translate(-849 -245)"><g transform="translate(-129 239)"><circle class="a" cx="1.5" cy="1.5" r="1.5" transform="translate(1275 235)"/><circle class="a" cx="1.5" cy="1.5" r="1.5" transform="translate(1242 235)"/><circle class="a" cx="1.5" cy="1.5" r="1.5" transform="translate(1275 248)"/><circle class="a" cx="1.5" cy="1.5" r="1.5" transform="translate(1242 248)"/><circle class="a" cx="1.5" cy="1.5" r="1.5" transform="translate(1275 261)"/><circle class="a" cx="1.5" cy="1.5" r="1.5" transform="translate(1242 261)"/><circle class="a" cx="1.5" cy="1.5" r="1.5" transform="translate(1286 235)"/><circle class="a" cx="1.5" cy="1.5" r="1.5" transform="translate(1253 235)"/><circle class="a" cx="1.5" cy="1.5" r="1.5" transform="translate(1286 248)"/><circle class="a" cx="1.5" cy="1.5" r="1.5" transform="translate(1253 248)"/><circle class="a" cx="1.5" cy="1.5" r="1.5" transform="translate(1286 261)"/><circle class="a" cx="1.5" cy="1.5" r="1.5" transform="translate(1253 261)"/><circle class="a" cx="1.5" cy="1.5" r="1.5" transform="translate(1297 235)"/><circle class="a" cx="1.5" cy="1.5" r="1.5" transform="translate(1264 235)"/><circle class="a" cx="1.5" cy="1.5" r="1.5" transform="translate(1297 248)"/><circle class="a" cx="1.5" cy="1.5" r="1.5" transform="translate(1264 248)"/><circle class="a" cx="1.5" cy="1.5" r="1.5" transform="translate(1297 261)"/><circle class="a" cx="1.5" cy="1.5" r="1.5" transform="translate(1264 261)"/></g><g transform="translate(1134.096 245)"><g transform="translate(0 0)"><g transform="translate(0)"><g transform="translate(0 107.868)"><path class="b" d="M144.96,146.463q-3.7.228-7.4.365c-32.236,1.2-64.446-2.475-96.663-3.279a314.374,314.374,0,0,0-33.571.753,2.218,2.218,0,0,1-2.216-2.216c2.068-17.853,4.654-35.658,5.994-53.584a8.089,8.089,0,0,0-.446-2.788c-.061-.07-.38-.855-.664-.9.093.068-.327-.052-.059-.031-1.617-.265-3.2-2.012-2.031-3.684C20,62.548,36.515,45.621,41.828,23.593c1.255-5.955,5.788-6.323,10.617-8.78,1.507-.9,5.191-3.38,5.791-5.106C59.669,3.484,57.146-2.612,64.515-5.13,69.38-6.479,77.979-7.621,82.9-6.2c6,2,5.555,8.768,9.038,13.424,1.8,2.694,4.872,6.381,7.707,6.794,1.374.2,2.386-2.581,3.759-2.389,21.388,5.2,50.528,40.646,59.72,60.27,2.072,6.176-4.609,4.313-4.2,10.52.506,11.776,1.613,26.853.956,38.643-.615,6.843-.16,14.014-2.286,20.6.572.7-.25,1.4-.921,1.7C155.829,144.8,147.511,146.263,144.96,146.463Z" transform="translate(0.287 6.853)"/><path class="c" d="M92.523-.055c-.556-2.5-4.537-1.43-3.855,1.063a19.954,19.954,0,0,0,6.341,10.054,17.522,17.522,0,0,0,8.874,4.061c-.3.295-.593.61-.9.911a28.388,28.388,0,0,1-2.173,1.928,31.512,31.512,0,0,1-4.918,3.323c-7.025,3.77-14.96,4.64-22.806,3.762a43.835,43.835,0,0,1-11-2.485,19.263,19.263,0,0,1-4.593-2.505l-.365-.274A7.843,7.843,0,0,1,54.961,17.6c1.392.313,3.152-1.17,4.118-2.033a12.355,12.355,0,0,0,2.6-3.422c1.287-2.458,1.968-5.628.889-8.264a.165.165,0,0,0-.323.043C61.93,6.994,61.1,9.874,58.9,12.148a11.517,11.517,0,0,1-3.428,2.439l-.18.083a2.45,2.45,0,0,0-1.348,1.088.691.691,0,0,0-.261.021c-.076.02-.146.043-.214.068a2.157,2.157,0,0,0,.218-1.067,1.3,1.3,0,0,0-2.574-.226c.056-.19.13-.006-.011.051,0-.017.007-.035.011-.052l0,.015h0L51.1,14.6h0c0,.026-.01.053-.013.08l0,.036,0-.03c0-.022,0-.042.008-.06l0-.026a.188.188,0,0,1-.082.016L51,14.626c-.052.022-.234.107-.288.129-.368.136-.78.179-1.157.3a3.721,3.721,0,0,0-2.037,1.376,3.809,3.809,0,0,0-.639,1.7,37.381,37.381,0,0,0-9.913,6.8c-6.4,6.246-10.867,14.065-14.531,22.158-1.865,4.12-3.526,8.327-5.152,12.546l-.256.666a49.914,49.914,0,0,0-3.661,13.993,1.761,1.761,0,0,0,.359,1.187A4.047,4.047,0,0,0,13.6,76.57c0,.056.006.112.011.167a2.066,2.066,0,0,0-1.7.923,1.124,1.124,0,0,0-.694,0c-1.432.457-1.662,2.03-1.932,3.346a20.775,20.775,0,0,0-.4,4.139,1.515,1.515,0,0,0,.766,1.335c.906.4,1.882.661,2.819,1.024.7.272,1.411.53,2.123.77a11.3,11.3,0,0,0-.737,2.378c-.336,1.135-.605,2.274-.832,3.436-1.536,7.9-2.6,15.886-4.039,23.8-.718,3.966-1.555,7.906-2.407,11.845q-.63,2.905-1.347,5.793c-.255,1.025-.522,2.052-.8,3.072-.079.3-.16.6-.241.892l-.144.52h0a1.884,1.884,0,0,0-.766.793A2.564,2.564,0,0,0,4.3,144.329a2.931,2.931,0,0,0,3.878-1.259,12.437,12.437,0,0,0,1-3.164c.3-1.149.595-2.305.874-3.461a204.622,204.622,0,0,0,4.138-23.862l.067-.573c.488-4.128.96-8.267,1.265-12.415.15-2.037.269-4.075.343-6.117.038-1.051-.022-2.107-.082-3.156-.026-.459-.066-.921-.08-1.38l0-.065c0-.047-.01-.108-.014-.172l0-.078c1.421.445,2.863.816,4.318,1.129a34.848,34.848,0,0,0,9.428.853c-.441,5.237-1.015,10.462-1.818,15.651q-1.161,7.5-2.678,14.944-.756,3.736-1.624,7.451c-.309,1.323-.662,2.637-.94,3.966a3.312,3.312,0,0,0,.116,2.192c-.366.994-.69,1.993-1.009,2.935l-.1.281c-.564,1.648-1.635,3.333-.517,4.953a3.14,3.14,0,0,0,2.471,1.343c.017.01.035.022.054.032a2.437,2.437,0,0,0,1.66.211c.85.167,1.7.328,2.558.474,2.11.365,4.232.666,6.358.919,4.046.482,8.12.746,12.191.892,14.907.537,29.829-.406,44.741-.135,7.6.138,15.195.481,22.779.934,3.785.227,7.572.47,11.36.657l1.172.058a84.335,84.335,0,0,0,10.161.04.228.228,0,0,0,.152-.068,2.468,2.468,0,0,0,2.224-2.45q-.757-7.937-1.516-15.875-1.35-14.144-2.727-28.287l-.133-1.361c-.309-3.177-.6-6.361-.753-9.55q1.131-.08,2.257-.2a81.766,81.766,0,0,0,23.454-6.595l.3-.132c.675-.295,1.415-.589,2.173-.9-.013,1.44.035,2.882.041,4.308.01,2.367-.008,4.735-.014,7.1-.014,4.875-.2,9.751-.443,14.618-.426,8.595-.927,17.178-1.685,25.753-.192,2.156-.451,4.31-.634,6.467a2.8,2.8,0,0,0,1.316,3,1.52,1.52,0,0,0,1.584-.074c1.388-.651,1.427-2.19,1.559-3.529.1-1.01.194-2.02.284-3.031q.29-3.236.5-6.476a243.856,243.856,0,0,0,.323-25.763c-.172-4.022-.421-8.052-.75-12.066l-.078-.926c-.272-3.208-.447-6.574-1.009-9.8,2.267-1.005,4.514-2.285,5.556-4.411,1.351-2.761-.134-5.122-2.249-6.747a2.647,2.647,0,0,0-.058-.793,56.5,56.5,0,0,0-2.607-7.74q-1.486-3.783-3.287-7.433a93.861,93.861,0,0,0-19.282-26.113,82.692,82.692,0,0,0-12.74-10.044,73.875,73.875,0,0,0-6.981-3.92l-.355-.173a27.962,27.962,0,0,0-5.405-2.126c-.193-.144-.389-.28-.587-.41a1.587,1.587,0,0,0-2.156.56,3.852,3.852,0,0,0-.731-.437l-.275-.125c-1.668-.751-3.671-1.454-5.481-.96a3.583,3.583,0,0,0-2.408,2.19,25.524,25.524,0,0,1-2.683-1.586,22.514,22.514,0,0,1-3.826-3.447A19.615,19.615,0,0,1,92.523-.055ZM12.846,80.294a1.213,1.213,0,0,0,.491.041c-.308.036.31.219.48.306l.013.007c.309.177.62.348.936.513.735.387,1.487.735,2.251,1.063a27.117,27.117,0,0,0,4.656,1.494,24.306,24.306,0,0,0,4.8.591,12.175,12.175,0,0,0,3.45-.344q-.192,2.914-.429,5.822l-2.187-.5c-2.188-.5-4.375-1.017-6.534-1.643-1.621-.47-3.219-1.02-4.8-1.613-.829-.311-1.65-.641-2.461-.995a12.451,12.451,0,0,1-1.157-.6l-.32-.182a18.458,18.458,0,0,1,.407-2.575C12.545,81.226,12.721,80.76,12.846,80.294Zm149.839-9.149c.278.9.7,1.745,1.676,1.949a1.315,1.315,0,0,0,.871-.085l.057.116c.8,1.641,1.034,3.373-.8,4.637a19.258,19.258,0,0,1-2.669,1.508c-1.672.8-3.453,1.436-5.131,2.087l-.334.13c-3,1.178-6.053,2.252-9.15,3.15a70.537,70.537,0,0,1-9.579,2.1c-1.365.194-2.741.33-4.119.418-.022-1.854-.012-3.71-.006-5.565.49-.062.976-.128,1.445-.184,1.43-.167,2.855-.371,4.271-.624a64.8,64.8,0,0,0,8.744-2.2A54.324,54.324,0,0,0,162.685,71.145Zm-58.028-56.8c1.2-1.273,3.5-.814,4.955-.2.439.187.882.377,1.3.606l.081.046c.489.282.487.449.248,1.011a17.242,17.242,0,0,1-1.155,2.141,29.639,29.639,0,0,1-6.734,7.672c-9.387,7.664-22.872,10.367-34.61,7.8a30.95,30.95,0,0,1-15.216-7.789l-.378-.376c-1.672-1.674-3.967-4.1-3.807-6.578.077-1.193,1.051-1.261,2.045-1.492a4.33,4.33,0,0,0,1.135-.418c-.272,1.172,1.176,2.915,1.924,3.647a18.725,18.725,0,0,0,5.449,3.63,41.739,41.739,0,0,0,12.042,3.026A46.069,46.069,0,0,0,86,26.749a32.459,32.459,0,0,0,11.471-4.368,25.56,25.56,0,0,0,4.483-3.5l.282-.285a12.8,12.8,0,0,0,2.645-3.417c.218,0,.435,0,.651-.019a.165.165,0,0,0,.082-.3c-.171-.091-.342-.181-.513-.27.029-.1.054-.187.074-.282a.1.1,0,0,0-.142-.109c-.1.062-.2.128-.3.2C104.711,14.378,104.684,14.363,104.657,14.349Z" transform="translate(-2.958 6.718)"/></g><g transform="translate(30.777)"><path class="b" d="M10.571,50.4c.489-6.334-.269-12.973,2.172-18.993C17,21.422,28.935,18.091,38.188,14.288c3.707-1.1,16.181-1.249,20.521-2.7C68.533,8.307,70.88,4.4,78.686,10.646a8.489,8.489,0,0,1,2.743,3.813l-.025.007a2.114,2.114,0,0,1-.4,1.824,12.743,12.743,0,0,1,3.064,13.256c-5.667,11.988-5.4,18.47-3.575,31.358,2.384,12.032-3.064,16.427-12.088,22.973a2.218,2.218,0,0,1-.035,2.288c-10.434,14.669-30.109,21.673-46.966,14.227-6.842-3.047-9.9-10.337-11.641-16.914a47.08,47.08,0,0,1-1-22.629A93.739,93.739,0,0,0,10.571,50.4Z" transform="translate(-0.76 19.8)"/><path class="c" d="M48.872-20.473a2.481,2.481,0,0,0-2.678,1.7l-.024.06c-.146.377-.309.744-.484,1.1-3.169-1.555-7.692-1.156-9.7,1.994-1.431,2.25-.558,4.92-.019,7.306l.354,1.572a2.435,2.435,0,0,0-1.177,2.025l0,.062.144,2.192A11.374,11.374,0,0,1,34.046-3.96c-.257-.472-.535-.935-.834-1.384A2.463,2.463,0,0,0,28.962-2.86,14.907,14.907,0,0,0,29.888-1.3,13.814,13.814,0,0,1,30.817.97a2.16,2.16,0,0,0-1.269,1.963A6.052,6.052,0,0,0,32.6,8.449a2.162,2.162,0,0,0,1.705.3c.095.128.189.255.28.385A12.418,12.418,0,0,0,32.5,11.284a37.479,37.479,0,0,0-5.47-.4,12.136,12.136,0,0,0-7.3-.661c-1.545.264-3.027.777-4.547,1.145-1.6.387-3.229.4-4.85.665a7.593,7.593,0,0,0-4.961,2.781,7.421,7.421,0,0,0-3.618,1.232c-2.513,1.6-5.011,3.228-7.517,4.842A2.565,2.565,0,0,0-6.913,23.6l.012.071.084.457-.2.282a18.552,18.552,0,0,0-2.1,3.415A36.709,36.709,0,0,0-11.6,31.964a30.183,30.183,0,0,0-2.362,6.057c-.138.53-.276,1.063-.367,1.6a6.11,6.11,0,0,0,.179,2.085c.136.927.185,1.867.329,2.8a1.135,1.135,0,0,0,1.168.935c-.206,1.568-.354,3.146-.5,4.712-.2,2.237-.336,4.481-.453,6.725a5.329,5.329,0,0,1-2.737,1.817,6.277,6.277,0,0,1-3.7-.451c-.735-.266-1.339.659-.98,1.277,1.126,1.941,3.536,1.933,5.361,1.073a5.07,5.07,0,0,0,1.952-1.572q-.046.977-.1,1.955l-.031.592c-.371,6.908-1.172,14.054.125,20.895a26.259,26.259,0,0,0,24.021,21.57,33.141,33.141,0,0,0,14.117-2.524c2.6-1.036,1.591-3.148-.216-2.544-3.111,1.04-8.827,2.589-13.942,1.92-12.056-1.576-22.279-7.6-21.229-33.567.149-3.682.607-7.365.706-11.047.095-3.6.06-7.2.218-10.8l.053-1.227c.062-1.434.128-2.875.236-4.311.13-.556.237-1.121.4-1.667a24.807,24.807,0,0,1,1.691-4.308,1.2,1.2,0,0,0,.515.235,6.757,6.757,0,0,0,4.09-.41A6.434,6.434,0,0,0-1.374,32.7a2.556,2.556,0,0,0,.533-.633,2.169,2.169,0,0,0,1.693-.647,1.519,1.519,0,0,0,.357-1.579l-.019-.05.045-.016a7.931,7.931,0,0,0,2.815,3.482A11.419,11.419,0,0,0,10.532,35a44.912,44.912,0,0,0,7.566-.738c.649-.1,1.293-.22,1.926-.379.025.025.049.054.076.078a7.011,7.011,0,0,0,7.743,1.384,12.049,12.049,0,0,0,3.985-2.965c.016.643.05,1.286.105,1.922l.023.253a5.032,5.032,0,0,0,1.229,3.3c1.448,1.387,3.548.83,5.219-.072,0,.043,0,.089,0,.134q-.677,2.3-1.357,4.6l-.1.327a16.534,16.534,0,0,0-.79,3.322c-.189,2.18,1.26,4.333,3.682,3.6A9.678,9.678,0,0,0,43.1,47.46l.615-.532a58.9,58.9,0,0,0-2.8,16.031.535.535,0,0,0,.527.527,5,5,0,0,0,2.018-.365,1.081,1.081,0,0,0,.113-.01,7.653,7.653,0,0,0,3.089-1.168,5.736,5.736,0,0,0-.251,2.153c.014.183.3.247.342.045a5.625,5.625,0,0,1,6.226-4.09A7.067,7.067,0,0,1,58.409,65.8a11.068,11.068,0,0,1-2.443,8.717A5.889,5.889,0,0,1,52.5,76.677a4.419,4.419,0,0,1-1.921-.115,8.041,8.041,0,0,1-.762-.29c-.367-.148-.795-.171-1.141-.328A.868.868,0,0,0,47.5,77.12a3.379,3.379,0,0,0,1.232,1.539c-.465.569-.888,1.36-1.044,1.572a36.585,36.585,0,0,1-2.521,3.086A26.523,26.523,0,0,1,42.16,86.08l-.449.355a10.536,10.536,0,0,0-2.652,2.746A1.451,1.451,0,0,0,40.3,91.346c3.357-.047,5.8-3,7.535-5.575.247-.369.48-.758.7-1.158a2.455,2.455,0,0,0,.262.35l-.192.515c-.568,1.516,1.88,2.507,2.591,1.092a21.544,21.544,0,0,1,1.783-2.926,1.511,1.511,0,0,0,.993-.6c.542-.785,1.149-1.578,1.662-2.415.284-.27.577-.529.875-.783.087.076.175.152.259.233a10.955,10.955,0,0,0,1.413,2.371l.123.157a7.863,7.863,0,0,0,4.309,3.148c.542.1,1.063-.571.583-1-1.242-1.117-2.71-1.877-3.855-3.123a13.919,13.919,0,0,1-1.528-2l-.1-.164c-.074-.122-.15-.243-.229-.367q.775-.528,1.551-1.061c1.423,1.216,3.276,1.772,4.85,2.78l.156.1c1.423.952,2.922-1.154,1.781-2.31A48.693,48.693,0,0,1,62.4,74.416a8.245,8.245,0,0,0,.865-3.261c.037-.327.065-.653.094-.98a3.942,3.942,0,0,0,2.282-.733l.257-.183a7.68,7.68,0,0,0,2.523.369,2.2,2.2,0,0,0,1.53-3.7,4.615,4.615,0,0,0-5.155-1.057c-.056-.029-.113-.06-.169-.091a2,2,0,0,0-.03-1.025l.027-.184a4.734,4.734,0,0,0,.724-1.953,4.548,4.548,0,0,0-.069-1.66,5.613,5.613,0,0,0-.2-.564,3.642,3.642,0,0,0,.249-1.09c.039-.047.078-.095.116-.147a2.929,2.929,0,0,0-.132-3.63c0-.062-.009-.124-.018-.186q.072-.161.132-.326A3.711,3.711,0,0,0,66.7,51.043a3.083,3.083,0,0,0-.793-1.816,1.035,1.035,0,0,0-.009-.72A10.8,10.8,0,0,0,66,42.315a2.8,2.8,0,0,0,.157-1.026,3.091,3.091,0,0,0-2.982-2.95,2.7,2.7,0,0,0-.541.063l0-.037a4.166,4.166,0,0,0-.375-1.279.812.812,0,0,0,.251-.144,14.09,14.09,0,0,0,3.219,1.239,1.041,1.041,0,0,0,1.163-1.513,6.974,6.974,0,0,0-.787-.982,10.082,10.082,0,0,1,1.229.083,2.38,2.38,0,0,0,2.061-1.1q.9.878,1.808,1.751a2.42,2.42,0,0,0,4.078-1.562,3.437,3.437,0,0,0,1.252-.622,21.393,21.393,0,0,0,7.653,1.731,2.484,2.484,0,0,0,2.125-3.7,12.368,12.368,0,0,0-2.193-2.814,25.612,25.612,0,0,0,4.094.886,2.362,2.362,0,0,0,2.127-1.22,9.152,9.152,0,0,0-.274-8.051c-.051-.1-.109-.2-.165-.3q-.207-.516-.451-1.018a5.892,5.892,0,0,0,.9-6.381,2.148,2.148,0,0,0,.249-1.893,16.214,16.214,0,0,0-2.922-4.9,5.212,5.212,0,0,0,.313-.74A6.132,6.132,0,0,0,86.234-.357,8.5,8.5,0,0,0,82.75-2.211a9.979,9.979,0,0,0-2.018-2.511c-.031-.068-.062-.136-.1-.2A7.54,7.54,0,0,0,74.7-8.818a2.444,2.444,0,0,0-1.61-2.077,7.547,7.547,0,0,0-1.122-2.239,2.533,2.533,0,0,0-3.369-.884,14.772,14.772,0,0,0-1.952,1.331,2.67,2.67,0,0,0-.941-.24l-.089-.006-2.031-.1c-.851-.377-1.7-.773-2.55-1.158a6.826,6.826,0,0,0-1.7-1.036,6.919,6.919,0,0,0-2.148-.517c-.587-.192-1.178-.361-1.779-.492a19.617,19.617,0,0,0-4.358-.468c-.03-.38-.045-.764-.042-1.153l0-.195A2.455,2.455,0,0,0,48.872-20.473ZM50.3,79.253c.2.043.406.078.61.1-.062.152-.124.3-.183.457-.165.093-.332.181-.5.264A4.245,4.245,0,0,0,50.3,79.253Zm10.581-3.145.137.252.066.122a4.555,4.555,0,0,0-.871.016v-.031a.914.914,0,0,0,.11-.041A4.626,4.626,0,0,0,60.876,76.107ZM55.157,64.6a12.623,12.623,0,0,0-5.023,1.183l-.142.07c-1.464.727-3.886,2.071-3.682,4a1.1,1.1,0,0,0,1.081,1.082c1.716-.117,2.7-1.848,3.857-2.928a19.886,19.886,0,0,1,4.03-2.954.244.244,0,0,0-.1-.449ZM63.42,39.22c.437.014.29.439.066.084A.617.617,0,0,0,63.42,39.22ZM39.853,10.888c4.135.109,8.3,2.551,11.394,5.02a40.355,40.355,0,0,1,7.082,7.456,42.874,42.874,0,0,1,1.37,4.181c.253.931.412,1.873.624,2.812l.066.288a4.515,4.515,0,0,1,.381.993,2.939,2.939,0,0,1-1.4.774.871.871,0,0,0-.43.249,9.22,9.22,0,0,1-1.028-2.288l-.008-.037a47.123,47.123,0,0,0-2.7-3.949,47.389,47.389,0,0,0-9.127-9.378,30.087,30.087,0,0,0-8.845-4.629A9.67,9.67,0,0,1,39.853,10.888Z" transform="translate(21.127 20.501)"/></g><g transform="translate(40.876 69.018)"><path class="c" d="M29.838,49.913A8.385,8.385,0,0,0,33.361,47.2a1.627,1.627,0,0,0,.329-1.265,1.825,1.825,0,0,0-.709-1.143,1.7,1.7,0,0,0-1.272-.344,1.594,1.594,0,0,0-1.075.711l-.064.088a5.55,5.55,0,0,1-2.034,1.707,4.582,4.582,0,0,1-2.517.443,6.755,6.755,0,0,1-4.1-2.352c-.154-.157-.308-.319-.462-.484a.727.727,0,0,0-.384-.3.824.824,0,0,0-.529.008.84.84,0,0,0-.416.316.771.771,0,0,0-.132.511,5.292,5.292,0,0,0,1.745,3.344,7.484,7.484,0,0,0,8.1,1.467ZM24.849,30.02c-1.555.946-3.925,3.151-2.252,5.5,1.969,2.067,4.8-.3,6.2-1.375,1.3-.831,2.751,1.306,1.549,2.276-10.1,7.478-14.193-6.149-6.286-7.508C24.933,28.758,25.256,29.727,24.849,30.02Zm18.092-8.7c-.172-2.134-3.42-2.618-3.743-.507a8.645,8.645,0,0,0,.9,5.331,1.588,1.588,0,0,0,3.013-.614A17.2,17.2,0,0,0,42.941,21.322Zm-24.726-.945a1.733,1.733,0,0,0-1.89-.77c-2.448.715-1.726,4.192-.867,5.884a1.7,1.7,0,0,0,2.659.343c1.112-1.319,1.645-3.954.231-5.254A1.789,1.789,0,0,0,18.215,20.377Zm21.92-8.392-.387-.068c-1.2-.207-2.683-.406-3.529.556a1.4,1.4,0,0,0,0,1.946c1.061.859,2.234.526,3.505.6a13.943,13.943,0,0,1,3.064.522A20.821,20.821,0,0,1,48.7,18.6c.248.166.5-.151.383-.383a12.211,12.211,0,0,0-5.326-4.967A13.173,13.173,0,0,0,40.135,11.985Zm-19.689-.958-.3.061c-3.22.673-7.4,2.019-8.929,5.183-.058.447,0,.543.053.606l.017.021a.417.417,0,0,0,.268.188l.163-.041a9.245,9.245,0,0,0,1.787-.7l.581-.286a15.983,15.983,0,0,1,2.073-.884,24.4,24.4,0,0,1,4.723-1.043,1.937,1.937,0,0,0,.947-.36,1.424,1.424,0,0,0,.53-.807,1.448,1.448,0,0,0-.163-1.21,1.533,1.533,0,0,0-.748-.645A1.755,1.755,0,0,0,20.446,11.027Z" transform="translate(-11.197 -10.99)"/></g><g transform="translate(29.501 71.49)"><path class="c" d="M-1.634,2.774q.254-.042.509-.08a1.526,1.526,0,0,1,.469-.168A8.013,8.013,0,0,1,.576,2.313C6.452.99,20.046,2.868,20.607,7.884c1.871.625,3.49.065,5.659.121,1.651-6.9,30.191-5.929,31.564-1.767l.016,0a21.422,21.422,0,0,1,4.773-.375,41.443,41.443,0,0,1,9.6.9c5.905.939,13.965,2.038,9.858,9.415l0,0h0a1.167,1.167,0,0,1-1.954-.841c1.381-3.5-1.738-3.915-4.138-4.919A40.216,40.216,0,0,0,57.76,8.638a4.447,4.447,0,0,1-1.915,1.274c-4.129.686-1.953,3.75-4.563,4.2C51.762,24.788,38.8,30.618,31.289,23.6c-3-2.933-3.714-7.278-4.409-11.194a1.04,1.04,0,0,1-.738-.55c-.884-.883-1.439-1.7-3.188-1.941a5.705,5.705,0,0,0-3.276.393c-.046.093-.1.185-.152.278a1.054,1.054,0,0,1-.312.335C20.94,21.554,12.686,28.28,4.354,22.764.734,19.357-.031,14.141-.183,9.485A1.409,1.409,0,0,1-.814,7.893,2.018,2.018,0,0,0-2,5.6a1.563,1.563,0,0,1,.37-2.83m35.8,5.046c1.034-.228,1.476,1.368.438,1.6a2.778,2.778,0,0,0-1.778,1.16l-.044.068c-.565.9-1.992.069-1.423-.835A4.422,4.422,0,0,1,34.169,7.82ZM3.878,6.831a.83.83,0,0,1,1.128.3.84.84,0,0,1-.261,1.106l-.035.026a1.548,1.548,0,0,0-.657,1.022l0,.051c-.041,1.061-1.69,1.067-1.649,0A3.247,3.247,0,0,1,3.878,6.831Z" transform="translate(2.746 -1.902)"/></g></g></g></g><path class="a" d="M78.592,104.083C52.565,97.952-.539,83.735,8.96,49.56l-8.046-13,4.34-.356,10.69-.88a103.773,103.773,0,0,1,14.023-16.04c45.074-43.006,156.308-5.4,156.308,28.416-1.449,48.065-55.025,57.5-88.663,57.5A148.68,148.68,0,0,1,78.592,104.083Z" transform="translate(1155.488 350.206) rotate(180)"/><text class="d" transform="translate(1060.096 297.52)"><tspan x="-67.905" y="0">let&apos;s get started</tspan><tspan x="-48.425" y="17">by declaring </tspan><tspan x="-26.298" y="34">a topic</tspan></text><g transform="translate(-261 239)"><circle class="a" cx="1.5" cy="1.5" r="1.5" transform="translate(1275 235)"/><circle class="a" cx="1.5" cy="1.5" r="1.5" transform="translate(1242 235)"/><circle class="a" cx="1.5" cy="1.5" r="1.5" transform="translate(1275 248)"/><circle class="a" cx="1.5" cy="1.5" r="1.5" transform="translate(1242 248)"/><circle class="a" cx="1.5" cy="1.5" r="1.5" transform="translate(1275 261)"/><circle class="a" cx="1.5" cy="1.5" r="1.5" transform="translate(1242 261)"/><circle class="a" cx="1.5" cy="1.5" r="1.5" transform="translate(1286 235)"/><circle class="a" cx="1.5" cy="1.5" r="1.5" transform="translate(1253 235)"/><circle class="a" cx="1.5" cy="1.5" r="1.5" transform="translate(1286 248)"/><circle class="a" cx="1.5" cy="1.5" r="1.5" transform="translate(1253 248)"/><circle class="a" cx="1.5" cy="1.5" r="1.5" transform="translate(1286 261)"/><circle class="a" cx="1.5" cy="1.5" r="1.5" transform="translate(1253 261)"/><circle class="a" cx="1.5" cy="1.5" r="1.5" transform="translate(1297 235)"/><circle class="a" cx="1.5" cy="1.5" r="1.5" transform="translate(1264 235)"/><circle class="a" cx="1.5" cy="1.5" r="1.5" transform="translate(1297 248)"/><circle class="a" cx="1.5" cy="1.5" r="1.5" transform="translate(1264 248)"/><circle class="a" cx="1.5" cy="1.5" r="1.5" transform="translate(1297 261)"/><circle class="a" cx="1.5" cy="1.5" r="1.5" transform="translate(1264 261)"/></g><g transform="translate(-393 239)"><circle class="a" cx="1.5" cy="1.5" r="1.5" transform="translate(1275 235)"/><circle class="a" cx="1.5" cy="1.5" r="1.5" transform="translate(1242 235)"/><circle class="a" cx="1.5" cy="1.5" r="1.5" transform="translate(1275 248)"/><circle class="a" cx="1.5" cy="1.5" r="1.5" transform="translate(1242 248)"/><circle class="a" cx="1.5" cy="1.5" r="1.5" transform="translate(1275 261)"/><circle class="a" cx="1.5" cy="1.5" r="1.5" transform="translate(1242 261)"/><circle class="a" cx="1.5" cy="1.5" r="1.5" transform="translate(1286 235)"/><circle class="a" cx="1.5" cy="1.5" r="1.5" transform="translate(1253 235)"/><circle class="a" cx="1.5" cy="1.5" r="1.5" transform="translate(1286 248)"/><circle class="a" cx="1.5" cy="1.5" r="1.5" transform="translate(1253 248)"/><circle class="a" cx="1.5" cy="1.5" r="1.5" transform="translate(1286 261)"/><circle class="a" cx="1.5" cy="1.5" r="1.5" transform="translate(1253 261)"/><circle class="a" cx="1.5" cy="1.5" r="1.5" transform="translate(1297 235)"/><circle class="a" cx="1.5" cy="1.5" r="1.5" transform="translate(1264 235)"/><circle class="a" cx="1.5" cy="1.5" r="1.5" transform="translate(1297 248)"/><circle class="a" cx="1.5" cy="1.5" r="1.5" transform="translate(1264 248)"/><circle class="a" cx="1.5" cy="1.5" r="1.5" transform="translate(1297 261)"/><circle class="a" cx="1.5" cy="1.5" r="1.5" transform="translate(1264 261)"/></g><g transform="translate(-195 239)"><circle class="a" cx="1.5" cy="1.5" r="1.5" transform="translate(1275 235)"/><circle class="a" cx="1.5" cy="1.5" r="1.5" transform="translate(1242 235)"/><circle class="a" cx="1.5" cy="1.5" r="1.5" transform="translate(1275 248)"/><circle class="a" cx="1.5" cy="1.5" r="1.5" transform="translate(1242 248)"/><circle class="a" cx="1.5" cy="1.5" r="1.5" transform="translate(1275 261)"/><circle class="a" cx="1.5" cy="1.5" r="1.5" transform="translate(1242 261)"/><circle class="a" cx="1.5" cy="1.5" r="1.5" transform="translate(1286 235)"/><circle class="a" cx="1.5" cy="1.5" r="1.5" transform="translate(1253 235)"/><circle class="a" cx="1.5" cy="1.5" r="1.5" transform="translate(1286 248)"/><circle class="a" cx="1.5" cy="1.5" r="1.5" transform="translate(1253 248)"/><circle class="a" cx="1.5" cy="1.5" r="1.5" transform="translate(1286 261)"/><circle class="a" cx="1.5" cy="1.5" r="1.5" transform="translate(1253 261)"/><circle class="a" cx="1.5" cy="1.5" r="1.5" transform="translate(1297 235)"/><circle class="a" cx="1.5" cy="1.5" r="1.5" transform="translate(1264 235)"/><circle class="a" cx="1.5" cy="1.5" r="1.5" transform="translate(1297 248)"/><circle class="a" cx="1.5" cy="1.5" r="1.5" transform="translate(1264 248)"/><circle class="a" cx="1.5" cy="1.5" r="1.5" transform="translate(1297 261)"/><circle class="a" cx="1.5" cy="1.5" r="1.5" transform="translate(1264 261)"/></g><g transform="translate(-327 239)"><circle class="a" cx="1.5" cy="1.5" r="1.5" transform="translate(1275 235)"/><circle class="a" cx="1.5" cy="1.5" r="1.5" transform="translate(1242 235)"/><circle class="a" cx="1.5" cy="1.5" r="1.5" transform="translate(1275 248)"/><circle class="a" cx="1.5" cy="1.5" r="1.5" transform="translate(1242 248)"/><circle class="a" cx="1.5" cy="1.5" r="1.5" transform="translate(1275 261)"/><circle class="a" cx="1.5" cy="1.5" r="1.5" transform="translate(1242 261)"/><circle class="a" cx="1.5" cy="1.5" r="1.5" transform="translate(1286 235)"/><circle class="a" cx="1.5" cy="1.5" r="1.5" transform="translate(1253 235)"/><circle class="a" cx="1.5" cy="1.5" r="1.5" transform="translate(1286 248)"/><circle class="a" cx="1.5" cy="1.5" r="1.5" transform="translate(1253 248)"/><circle class="a" cx="1.5" cy="1.5" r="1.5" transform="translate(1286 261)"/><circle class="a" cx="1.5" cy="1.5" r="1.5" transform="translate(1253 261)"/><circle class="a" cx="1.5" cy="1.5" r="1.5" transform="translate(1297 235)"/><circle class="a" cx="1.5" cy="1.5" r="1.5" transform="translate(1264 235)"/><circle class="a" cx="1.5" cy="1.5" r="1.5" transform="translate(1297 248)"/><circle class="a" cx="1.5" cy="1.5" r="1.5" transform="translate(1264 248)"/><circle class="a" cx="1.5" cy="1.5" r="1.5" transform="translate(1297 261)"/><circle class="a" cx="1.5" cy="1.5" r="1.5" transform="translate(1264 261)"/></g></g></svg>