<svg xmlns="http://www.w3.org/2000/svg" width="267.917" height="24.535" viewBox="0 0 267.917 24.535"><defs><style>.a{fill:none;stroke:#0d0e0c;stroke-width:2px;}</style></defs><g transform="translate(-641.212 -648.817)"><g transform="translate(-17.543 377)"><path class="a" d="M4728.177,570.982l-7.178,7.9,7.178,9.48L4721,595.95l7.178,9.792-7.178,7.12,7.178,8.68L4721,628.683l7.178,9.712" transform="translate(1430.57 -4447.829) rotate(90)"/><path class="a" d="M4728.177,570.982l-7.178,7.9,7.178,9.48L4721,595.95l7.178,9.792-7.178,7.12,7.178,8.68L4721,628.683l7.178,9.712" transform="translate(1496.982 -4447.829) rotate(90)"/><path class="a" d="M4728.177,570.982l-7.178,7.9,7.178,9.48L4721,595.95l7.178,9.792-7.178,7.12,7.178,8.68L4721,628.683l7.178,9.712" transform="translate(1430.57 -4433.177) rotate(90)"/><path class="a" d="M4728.177,570.982l-7.178,7.9,7.178,9.48L4721,595.95l7.178,9.792-7.178,7.12,7.178,8.68L4721,628.683l7.178,9.712" transform="translate(1496.982 -4433.177) rotate(90)"/></g><g transform="translate(-150.368 377)"><path class="a" d="M4728.177,570.982l-7.178,7.9,7.178,9.48L4721,595.95l7.178,9.792-7.178,7.12,7.178,8.68L4721,628.683l7.178,9.712" transform="translate(1430.57 -4447.829) rotate(90)"/><path class="a" d="M4728.177,570.982l-7.178,7.9,7.178,9.48L4721,595.95l7.178,9.792-7.178,7.12,7.178,8.68L4721,628.683l7.178,9.712" transform="translate(1496.982 -4447.829) rotate(90)"/><path class="a" d="M4728.177,570.982l-7.178,7.9,7.178,9.48L4721,595.95l7.178,9.792-7.178,7.12,7.178,8.68L4721,628.683l7.178,9.712" transform="translate(1430.57 -4433.177) rotate(90)"/><path class="a" d="M4728.177,570.982l-7.178,7.9,7.178,9.48L4721,595.95l7.178,9.792-7.178,7.12,7.178,8.68L4721,628.683l7.178,9.712" transform="translate(1496.982 -4433.177) rotate(90)"/></g></g></svg>